# MagicaVoxel @ Ephtracy

# group
o 

# material
mtllib BombIcon.mtl
usemtl palette

# normals
vn -1 0 0
vn 1 0 0
vn 0 -1 0
vn 0 1 0
vn 0 0 -1
vn 0 0 1

# texcoords
vt 0.470703 0.5
vt 0.845703 0.5
vt 0.962891 0.5
vt 0.974609 0.5

# verts
v -0.5 -0.4 0
v -0.5 -0.2 0
v -0.5 -0.1 0
v -0.5 0.1 0
v -0.5 0.2 0
v -0.5 0.4 0
v -0.5 -0.4 0.1
v -0.5 -0.2 0.1
v -0.5 -0.1 0.1
v -0.5 0.1 0.1
v -0.5 0.2 0.1
v -0.5 0.4 0.1
v -0.4 -0.2 0
v -0.4 -0.1 0
v -0.4 0.1 0
v -0.4 0.2 0
v -0.4 -0.2 0.1
v -0.4 -0.1 0.1
v -0.4 0.1 0.1
v -0.4 0.2 0.1
v -0.2 -0.3 0
v -0.2 -0.2 0
v -0.2 0.2 0
v -0.2 0.3 0
v -0.2 -0.3 0.1
v -0.2 -0.2 0.1
v -0.2 0.2 0.1
v -0.2 0.3 0.1
v -0.4 -0.4 0
v -0.4 -0.3 0
v -0.4 0.3 0
v -0.4 0.4 0
v -0.4 -0.4 0.1
v -0.4 -0.3 0.1
v -0.4 0.3 0.1
v -0.4 0.4 0.1
v -0.3 -0.3 0
v -0.3 -0.2 0
v -0.3 0.2 0
v -0.3 0.3 0
v -0.3 -0.3 0.1
v -0.3 -0.2 0.1
v -0.3 0.2 0.1
v -0.3 0.3 0.1
v 0.2 -0.3 0
v 0.2 -0.2 0
v 0.2 0.2 0
v 0.2 0.3 0
v 0.2 -0.3 0.1
v 0.2 -0.2 0.1
v 0.2 0.2 0.1
v 0.2 0.3 0.1
v 0.4 -0.2 0
v 0.4 -0.1 0
v 0.4 0.1 0
v 0.4 0.2 0
v 0.4 -0.2 0.1
v 0.4 -0.1 0.1
v 0.4 0.1 0.1
v 0.4 0.2 0.1
v 0.5 -0.1 0
v 0.5 0.1 0
v 0.5 -0.1 0.1
v 0.5 0.1 0.1
v -0.5 -0.4 0
v -0.5 -0.4 0.1
v -0.4 -0.4 0
v -0.4 -0.4 0.1
v -0.4 -0.3 0
v -0.4 -0.3 0.1
v -0.3 -0.3 0
v -0.3 -0.3 0.1
v -0.2 -0.3 0
v -0.2 -0.3 0.1
v 0.2 -0.3 0
v 0.2 -0.3 0.1
v -0.3 -0.2 0
v -0.3 -0.2 0.1
v -0.2 -0.2 0
v -0.2 -0.2 0.1
v 0.2 -0.2 0
v 0.2 -0.2 0.1
v 0.4 -0.2 0
v 0.4 -0.2 0.1
v -0.5 -0.1 0
v -0.5 -0.1 0.1
v -0.4 -0.1 0
v -0.4 -0.1 0.1
v 0.4 -0.1 0
v 0.4 -0.1 0.1
v 0.5 -0.1 0
v 0.5 -0.1 0.1
v -0.5 0.2 0
v -0.5 0.2 0.1
v -0.4 0.2 0
v -0.4 0.2 0.1
v -0.5 -0.2 0
v -0.5 -0.2 0.1
v -0.4 -0.2 0
v -0.4 -0.2 0.1
v -0.5 0.1 0
v -0.5 0.1 0.1
v -0.4 0.1 0
v -0.4 0.1 0.1
v 0.4 0.1 0
v 0.4 0.1 0.1
v 0.5 0.1 0
v 0.5 0.1 0.1
v -0.3 0.2 0
v -0.3 0.2 0.1
v -0.2 0.2 0
v -0.2 0.2 0.1
v 0.2 0.2 0
v 0.2 0.2 0.1
v 0.4 0.2 0
v 0.4 0.2 0.1
v -0.4 0.3 0
v -0.4 0.3 0.1
v -0.3 0.3 0
v -0.3 0.3 0.1
v -0.2 0.3 0
v -0.2 0.3 0.1
v 0.2 0.3 0
v 0.2 0.3 0.1
v -0.5 0.4 0
v -0.5 0.4 0.1
v -0.4 0.4 0
v -0.4 0.4 0.1
v -0.5 -0.4 0
v -0.4 -0.4 0
v -0.4 -0.3 0
v -0.3 -0.3 0
v -0.2 -0.3 0
v 0.2 -0.3 0
v -0.5 -0.2 0
v -0.4 -0.2 0
v -0.3 -0.2 0
v -0.2 -0.2 0
v 0 -0.2 0
v 0.2 -0.2 0
v 0.4 -0.2 0
v -0.5 -0.1 0
v -0.4 -0.1 0
v -0.2 -0.1 0
v 0 -0.1 0
v 0.4 -0.1 0
v 0.5 -0.1 0
v -0.5 0.1 0
v -0.4 0.1 0
v -0.2 0.1 0
v 0 0.1 0
v 0.4 0.1 0
v 0.5 0.1 0
v -0.5 0.2 0
v -0.4 0.2 0
v -0.3 0.2 0
v -0.2 0.2 0
v 0 0.2 0
v 0.2 0.2 0
v 0.4 0.2 0
v -0.4 0.3 0
v -0.3 0.3 0
v -0.2 0.3 0
v 0.2 0.3 0
v -0.5 0.4 0
v -0.4 0.4 0
v -0.5 -0.4 0.1
v -0.4 -0.4 0.1
v -0.4 -0.3 0.1
v -0.3 -0.3 0.1
v -0.2 -0.3 0.1
v 0.2 -0.3 0.1
v -0.5 -0.2 0.1
v -0.4 -0.2 0.1
v -0.3 -0.2 0.1
v -0.2 -0.2 0.1
v 0 -0.2 0.1
v 0.2 -0.2 0.1
v 0.4 -0.2 0.1
v -0.5 -0.1 0.1
v -0.4 -0.1 0.1
v -0.2 -0.1 0.1
v 0 -0.1 0.1
v 0.4 -0.1 0.1
v 0.5 -0.1 0.1
v -0.5 0.1 0.1
v -0.4 0.1 0.1
v -0.2 0.1 0.1
v 0 0.1 0.1
v 0.4 0.1 0.1
v 0.5 0.1 0.1
v -0.5 0.2 0.1
v -0.4 0.2 0.1
v -0.3 0.2 0.1
v -0.2 0.2 0.1
v 0 0.2 0.1
v 0.2 0.2 0.1
v 0.4 0.2 0.1
v -0.4 0.3 0.1
v -0.3 0.3 0.1
v -0.2 0.3 0.1
v 0.2 0.3 0.1
v -0.5 0.4 0.1
v -0.4 0.4 0.1

# faces
f 7/1/1 2/1/1 1/1/1
f 8/1/1 2/1/1 7/1/1
f 9/1/1 4/1/1 3/1/1
f 10/1/1 4/1/1 9/1/1
f 11/1/1 6/1/1 5/1/1
f 12/1/1 6/1/1 11/1/1
f 17/1/1 14/1/1 13/1/1
f 18/1/1 14/1/1 17/1/1
f 19/1/1 16/1/1 15/1/1
f 20/1/1 16/1/1 19/1/1
f 25/1/1 22/1/1 21/1/1
f 26/1/1 22/1/1 25/1/1
f 27/1/1 24/1/1 23/1/1
f 28/1/1 24/1/1 27/1/1
f 29/1/2 30/1/2 33/1/2
f 33/1/2 30/1/2 34/1/2
f 31/1/2 32/1/2 35/1/2
f 35/1/2 32/1/2 36/1/2
f 37/1/2 38/1/2 41/1/2
f 41/1/2 38/1/2 42/1/2
f 39/1/2 40/1/2 43/1/2
f 43/1/2 40/1/2 44/1/2
f 45/1/2 46/1/2 49/1/2
f 49/1/2 46/1/2 50/1/2
f 47/1/2 48/1/2 51/1/2
f 51/1/2 48/1/2 52/1/2
f 53/1/2 54/1/2 57/1/2
f 57/1/2 54/1/2 58/1/2
f 55/1/2 56/1/2 59/1/2
f 59/1/2 56/1/2 60/1/2
f 61/2/2 62/2/2 63/2/2
f 63/2/2 62/2/2 64/2/2
f 67/1/3 66/1/3 65/1/3
f 68/1/3 66/1/3 67/1/3
f 71/1/3 70/1/3 69/1/3
f 72/1/3 70/1/3 71/1/3
f 75/1/3 74/1/3 73/1/3
f 76/1/3 74/1/3 75/1/3
f 79/1/3 78/1/3 77/1/3
f 80/1/3 78/1/3 79/1/3
f 83/1/3 82/1/3 81/1/3
f 84/1/3 82/1/3 83/1/3
f 87/1/3 86/1/3 85/1/3
f 88/1/3 86/1/3 87/1/3
f 91/2/3 90/2/3 89/2/3
f 92/2/3 90/2/3 91/2/3
f 95/1/3 94/1/3 93/1/3
f 96/1/3 94/1/3 95/1/3
f 97/1/4 98/1/4 99/1/4
f 99/1/4 98/1/4 100/1/4
f 101/1/4 102/1/4 103/1/4
f 103/1/4 102/1/4 104/1/4
f 105/2/4 106/2/4 107/2/4
f 107/2/4 106/2/4 108/2/4
f 109/1/4 110/1/4 111/1/4
f 111/1/4 110/1/4 112/1/4
f 113/1/4 114/1/4 115/1/4
f 115/1/4 114/1/4 116/1/4
f 117/1/4 118/1/4 119/1/4
f 119/1/4 118/1/4 120/1/4
f 121/1/4 122/1/4 123/1/4
f 123/1/4 122/1/4 124/1/4
f 125/1/4 126/1/4 127/1/4
f 127/1/4 126/1/4 128/1/4
f 131/1/5 130/1/5 129/1/5
f 135/1/5 131/1/5 129/1/5
f 135/1/5 132/1/5 131/1/5
f 136/1/5 132/1/5 135/1/5
f 137/1/5 132/1/5 136/1/5
f 138/1/5 134/1/5 133/1/5
f 139/1/5 134/1/5 138/1/5
f 140/1/5 134/1/5 139/1/5
f 143/1/5 137/1/5 136/1/5
f 143/1/5 138/1/5 137/1/5
f 144/3/5 139/3/5 138/3/5
f 144/1/5 138/1/5 143/1/5
f 145/1/5 140/1/5 139/1/5
f 145/3/5 139/3/5 144/3/5
f 145/1/5 141/1/5 140/1/5
f 146/1/5 141/1/5 145/1/5
f 148/1/5 143/1/5 142/1/5
f 149/4/5 144/4/5 143/4/5
f 149/1/5 143/1/5 148/1/5
f 149/4/5 145/4/5 144/4/5
f 149/4/5 146/4/5 145/4/5
f 150/4/5 146/4/5 149/4/5
f 151/4/5 146/4/5 150/4/5
f 152/2/5 147/2/5 146/2/5
f 152/4/5 146/4/5 151/4/5
f 153/2/5 147/2/5 152/2/5
f 155/1/5 150/1/5 149/1/5
f 156/1/5 150/1/5 155/1/5
f 157/3/5 151/3/5 150/3/5
f 157/1/5 150/1/5 156/1/5
f 158/1/5 152/1/5 151/1/5
f 158/3/5 151/3/5 157/3/5
f 159/1/5 152/1/5 158/1/5
f 160/1/5 152/1/5 159/1/5
f 161/1/5 156/1/5 155/1/5
f 161/1/5 155/1/5 154/1/5
f 162/1/5 156/1/5 161/1/5
f 163/1/5 159/1/5 158/1/5
f 163/1/5 158/1/5 157/1/5
f 164/1/5 159/1/5 163/1/5
f 165/1/5 161/1/5 154/1/5
f 166/1/5 161/1/5 165/1/5
f 167/1/6 168/1/6 169/1/6
f 167/1/6 169/1/6 173/1/6
f 169/1/6 170/1/6 173/1/6
f 173/1/6 170/1/6 174/1/6
f 174/1/6 170/1/6 175/1/6
f 171/1/6 172/1/6 176/1/6
f 176/1/6 172/1/6 177/1/6
f 177/1/6 172/1/6 178/1/6
f 174/1/6 175/1/6 181/1/6
f 175/1/6 176/1/6 181/1/6
f 176/3/6 177/3/6 182/3/6
f 181/1/6 176/1/6 182/1/6
f 177/1/6 178/1/6 183/1/6
f 182/3/6 177/3/6 183/3/6
f 178/1/6 179/1/6 183/1/6
f 183/1/6 179/1/6 184/1/6
f 180/1/6 181/1/6 186/1/6
f 181/4/6 182/4/6 187/4/6
f 186/1/6 181/1/6 187/1/6
f 182/4/6 183/4/6 187/4/6
f 183/4/6 184/4/6 187/4/6
f 187/4/6 184/4/6 188/4/6
f 188/4/6 184/4/6 189/4/6
f 184/2/6 185/2/6 190/2/6
f 189/4/6 184/4/6 190/4/6
f 190/2/6 185/2/6 191/2/6
f 187/1/6 188/1/6 193/1/6
f 193/1/6 188/1/6 194/1/6
f 188/3/6 189/3/6 195/3/6
f 194/1/6 188/1/6 195/1/6
f 189/1/6 190/1/6 196/1/6
f 195/3/6 189/3/6 196/3/6
f 196/1/6 190/1/6 197/1/6
f 197/1/6 190/1/6 198/1/6
f 193/1/6 194/1/6 199/1/6
f 192/1/6 193/1/6 199/1/6
f 199/1/6 194/1/6 200/1/6
f 196/1/6 197/1/6 201/1/6
f 195/1/6 196/1/6 201/1/6
f 201/1/6 197/1/6 202/1/6
f 192/1/6 199/1/6 203/1/6
f 203/1/6 199/1/6 204/1/6
