# MagicaVoxel @ Ephtracy

# group
o 

# material
mtllib Lander Radar.mtl
usemtl palette

# normals
vn -1 0 0
vn 1 0 0
vn 0 -1 0
vn 0 1 0
vn 0 0 -1
vn 0 0 1

# texcoords
vt 0.681641 0.5
vt 0.751953 0.5
vt 0.845703 0.5
vt 0.919922 0.5
vt 0.927734 0.5

# verts
v -0.5 0 0
v -0.5 0.2 0
v -0.5 0 0.1
v -0.5 0.2 0.1
v -0.4 -0.4 0
v -0.4 -0.3 0
v -0.4 -0.1 0
v -0.4 0 0
v -0.4 -0.4 0.1
v -0.4 -0.3 0.1
v -0.4 -0.1 0.1
v -0.4 0 0.1
v -0.3 -0.3 0
v -0.3 -0.1 0
v -0.3 0.2 0
v -0.3 0.3 0
v -0.3 -0.3 0.1
v -0.3 -0.1 0.1
v -0.3 0.2 0.1
v -0.3 0.3 0.1
v -0.2 0.3 0
v -0.2 0.4 0
v -0.2 0.3 0.1
v -0.2 0.4 0.1
v -0.1 -0.5 0
v -0.1 -0.4 0
v -0.1 -0.5 0.1
v -0.1 -0.4 0.1
v -0.1 -0.3 0.1
v -0.1 -0.1 0.1
v -0.1 0.2 0.1
v -0.1 -0.3 0.2
v -0.1 -0.1 0.2
v -0.1 0.2 0.2
v 0.1 -0.5 0
v 0.1 -0.4 0
v 0.1 -0.5 0.1
v 0.1 -0.4 0.1
v 0.1 -0.3 0.1
v 0.1 -0.1 0.1
v 0.1 -0.3 0.2
v 0.1 -0.1 0.2
v 0.2 0.3 0
v 0.2 0.4 0
v 0.2 -0.1 0.1
v 0.2 0.1 0.1
v 0.2 0.2 0.1
v 0.2 0.3 0.1
v 0.2 0.4 0.1
v 0.2 -0.1 0.2
v 0.2 0.1 0.2
v 0.2 0.2 0.2
v 0.3 -0.3 0
v 0.3 -0.1 0
v 0.3 0.2 0
v 0.3 0.3 0
v 0.3 -0.3 0.1
v 0.3 -0.1 0.1
v 0.3 0.2 0.1
v 0.3 0.3 0.1
v 0.4 -0.4 0
v 0.4 -0.3 0
v 0.4 -0.1 0
v 0.4 0 0
v 0.4 -0.4 0.1
v 0.4 -0.3 0.1
v 0.4 -0.1 0.1
v 0.4 0 0.1
v 0.5 0 0
v 0.5 0.2 0
v 0.5 0 0.1
v 0.5 0.2 0.1
v -0.1 -0.5 0
v -0.1 -0.5 0.1
v 0.1 -0.5 0
v 0.1 -0.5 0.1
v -0.4 -0.4 0
v -0.4 -0.4 0.1
v -0.1 -0.4 0
v -0.1 -0.4 0.1
v 0.1 -0.4 0
v 0.1 -0.4 0.1
v 0.4 -0.4 0
v 0.4 -0.4 0.1
v -0.1 -0.3 0.1
v -0.1 -0.3 0.2
v 0.1 -0.3 0.1
v 0.1 -0.3 0.2
v -0.4 -0.1 0
v -0.4 -0.1 0.1
v -0.3 -0.1 0
v -0.3 -0.1 0.1
v 0.1 -0.1 0.1
v 0.1 -0.1 0.2
v 0.2 -0.1 0.1
v 0.2 -0.1 0.2
v 0.3 -0.1 0
v 0.3 -0.1 0.1
v 0.4 -0.1 0
v 0.4 -0.1 0.1
v -0.5 0 0
v -0.5 0 0.1
v -0.4 0 0
v -0.4 0 0.1
v 0.4 0 0
v 0.4 0 0.1
v 0.5 0 0
v 0.5 0 0.1
v -0.4 -0.3 0
v -0.4 -0.3 0.1
v -0.3 -0.3 0
v -0.3 -0.3 0.1
v 0.3 -0.3 0
v 0.3 -0.3 0.1
v 0.4 -0.3 0
v 0.4 -0.3 0.1
v -0.5 0.2 0
v -0.5 0.2 0.1
v -0.3 0.2 0
v -0.3 0.2 0.1
v -0.1 0.2 0.1
v -0.1 0.2 0.2
v 0 0.2 0.1
v 0 0.2 0.2
v 0.1 0.2 0.1
v 0.1 0.2 0.2
v 0.2 0.2 0.1
v 0.2 0.2 0.2
v 0.3 0.2 0
v 0.3 0.2 0.1
v 0.5 0.2 0
v 0.5 0.2 0.1
v -0.3 0.3 0
v -0.3 0.3 0.1
v -0.2 0.3 0
v -0.2 0.3 0.1
v 0.2 0.3 0
v 0.2 0.3 0.1
v 0.3 0.3 0
v 0.3 0.3 0.1
v -0.2 0.4 0
v -0.2 0.4 0.1
v 0.2 0.4 0
v 0.2 0.4 0.1
v -0.1 -0.5 0
v 0.1 -0.5 0
v -0.4 -0.4 0
v -0.1 -0.4 0
v 0.1 -0.4 0
v 0.4 -0.4 0
v -0.4 -0.3 0
v -0.3 -0.3 0
v 0.3 -0.3 0
v 0.4 -0.3 0
v -0.1 -0.2 0
v 0 -0.2 0
v -0.4 -0.1 0
v -0.3 -0.1 0
v -0.1 -0.1 0
v 0 -0.1 0
v 0.3 -0.1 0
v 0.4 -0.1 0
v -0.5 0 0
v -0.4 0 0
v -0.1 0 0
v 0 0 0
v 0.4 0 0
v 0.5 0 0
v -0.5 0.2 0
v -0.3 0.2 0
v 0.3 0.2 0
v 0.5 0.2 0
v -0.3 0.3 0
v -0.2 0.3 0
v 0.2 0.3 0
v 0.3 0.3 0
v -0.2 0.4 0
v 0.2 0.4 0
v -0.1 -0.5 0.1
v 0.1 -0.5 0.1
v -0.4 -0.4 0.1
v -0.1 -0.4 0.1
v 0.1 -0.4 0.1
v 0.4 -0.4 0.1
v -0.4 -0.3 0.1
v -0.3 -0.3 0.1
v -0.1 -0.3 0.1
v 0.1 -0.3 0.1
v 0.3 -0.3 0.1
v 0.4 -0.3 0.1
v -0.4 -0.1 0.1
v -0.3 -0.1 0.1
v -0.1 -0.1 0.1
v 0.1 -0.1 0.1
v 0.2 -0.1 0.1
v 0.3 -0.1 0.1
v 0.4 -0.1 0.1
v -0.5 0 0.1
v -0.4 0 0.1
v 0.4 0 0.1
v 0.5 0 0.1
v 0.2 0.1 0.1
v -0.5 0.2 0.1
v -0.3 0.2 0.1
v -0.1 0.2 0.1
v 0 0.2 0.1
v 0.1 0.2 0.1
v 0.2 0.2 0.1
v 0.3 0.2 0.1
v 0.5 0.2 0.1
v -0.3 0.3 0.1
v -0.2 0.3 0.1
v 0.2 0.3 0.1
v 0.3 0.3 0.1
v -0.2 0.4 0.1
v 0.2 0.4 0.1
v -0.1 -0.3 0.2
v 0.1 -0.3 0.2
v -0.1 -0.1 0.2
v 0.1 -0.1 0.2
v 0.2 -0.1 0.2
v 0 0 0.2
v 0.1 0 0.2
v 0.1 0.1 0.2
v 0.2 0.1 0.2
v -0.1 0.2 0.2
v 0 0.2 0.2
v 0.1 0.2 0.2
v 0.2 0.2 0.2

# faces
f 3/2/1 2/2/1 1/2/1
f 4/2/1 2/2/1 3/2/1
f 9/2/1 6/2/1 5/2/1
f 10/2/1 6/2/1 9/2/1
f 11/2/1 8/2/1 7/2/1
f 12/2/1 8/2/1 11/2/1
f 17/2/1 14/2/1 13/2/1
f 18/2/1 14/2/1 17/2/1
f 19/2/1 16/2/1 15/2/1
f 20/2/1 16/2/1 19/2/1
f 23/2/1 22/2/1 21/2/1
f 24/2/1 22/2/1 23/2/1
f 27/3/1 26/3/1 25/3/1
f 28/3/1 26/3/1 27/3/1
f 32/2/1 30/2/1 29/2/1
f 33/1/1 31/1/1 30/1/1
f 33/2/1 30/2/1 32/2/1
f 34/1/1 31/1/1 33/1/1
f 35/3/2 36/3/2 37/3/2
f 37/3/2 36/3/2 38/3/2
f 39/2/2 40/2/2 41/2/2
f 41/2/2 40/2/2 42/2/2
f 43/2/2 44/2/2 48/2/2
f 48/2/2 44/2/2 49/2/2
f 45/2/2 46/2/2 50/2/2
f 46/5/2 47/5/2 51/5/2
f 50/2/2 46/2/2 51/2/2
f 51/5/2 47/5/2 52/5/2
f 53/2/2 54/2/2 57/2/2
f 57/2/2 54/2/2 58/2/2
f 55/2/2 56/2/2 59/2/2
f 59/2/2 56/2/2 60/2/2
f 61/2/2 62/2/2 65/2/2
f 65/2/2 62/2/2 66/2/2
f 63/2/2 64/2/2 67/2/2
f 67/2/2 64/2/2 68/2/2
f 69/2/2 70/2/2 71/2/2
f 71/2/2 70/2/2 72/2/2
f 75/3/3 74/3/3 73/3/3
f 76/3/3 74/3/3 75/3/3
f 79/2/3 78/2/3 77/2/3
f 80/2/3 78/2/3 79/2/3
f 83/2/3 82/2/3 81/2/3
f 84/2/3 82/2/3 83/2/3
f 87/2/3 86/2/3 85/2/3
f 88/2/3 86/2/3 87/2/3
f 91/2/3 90/2/3 89/2/3
f 92/2/3 90/2/3 91/2/3
f 95/2/3 94/2/3 93/2/3
f 96/2/3 94/2/3 95/2/3
f 99/2/3 98/2/3 97/2/3
f 100/2/3 98/2/3 99/2/3
f 103/2/3 102/2/3 101/2/3
f 104/2/3 102/2/3 103/2/3
f 107/2/3 106/2/3 105/2/3
f 108/2/3 106/2/3 107/2/3
f 109/2/4 110/2/4 111/2/4
f 111/2/4 110/2/4 112/2/4
f 113/2/4 114/2/4 115/2/4
f 115/2/4 114/2/4 116/2/4
f 117/2/4 118/2/4 119/2/4
f 119/2/4 118/2/4 120/2/4
f 121/1/4 122/1/4 123/1/4
f 123/1/4 122/1/4 124/1/4
f 123/2/4 124/2/4 125/2/4
f 125/2/4 124/2/4 126/2/4
f 125/5/4 126/5/4 127/5/4
f 127/5/4 126/5/4 128/5/4
f 129/2/4 130/2/4 131/2/4
f 131/2/4 130/2/4 132/2/4
f 133/2/4 134/2/4 135/2/4
f 135/2/4 134/2/4 136/2/4
f 137/2/4 138/2/4 139/2/4
f 139/2/4 138/2/4 140/2/4
f 141/2/4 142/2/4 143/2/4
f 143/2/4 142/2/4 144/2/4
f 148/3/5 146/3/5 145/3/5
f 149/3/5 146/3/5 148/3/5
f 151/2/5 148/2/5 147/2/5
f 151/2/5 150/2/5 149/2/5
f 151/2/5 149/2/5 148/2/5
f 152/2/5 150/2/5 151/2/5
f 153/2/5 150/2/5 152/2/5
f 154/2/5 150/2/5 153/2/5
f 155/2/5 153/2/5 152/2/5
f 156/2/5 153/2/5 155/2/5
f 158/2/5 155/2/5 152/2/5
f 159/1/5 156/1/5 155/1/5
f 159/2/5 155/2/5 158/2/5
f 160/2/5 153/2/5 156/2/5
f 160/1/5 156/1/5 159/1/5
f 161/2/5 153/2/5 160/2/5
f 164/2/5 159/2/5 158/2/5
f 164/2/5 158/2/5 157/2/5
f 165/4/5 160/4/5 159/4/5
f 165/2/5 159/2/5 164/2/5
f 166/2/5 162/2/5 161/2/5
f 166/4/5 160/4/5 165/4/5
f 166/2/5 161/2/5 160/2/5
f 167/2/5 162/2/5 166/2/5
f 169/2/5 167/2/5 166/2/5
f 169/2/5 168/2/5 167/2/5
f 169/2/5 166/2/5 165/2/5
f 169/2/5 164/2/5 163/2/5
f 169/2/5 165/2/5 164/2/5
f 170/2/5 168/2/5 169/2/5
f 171/2/5 168/2/5 170/2/5
f 172/2/5 168/2/5 171/2/5
f 173/2/5 171/2/5 170/2/5
f 174/2/5 171/2/5 173/2/5
f 175/2/5 171/2/5 174/2/5
f 176/2/5 171/2/5 175/2/5
f 177/2/5 175/2/5 174/2/5
f 178/2/5 175/2/5 177/2/5
f 179/3/6 180/3/6 182/3/6
f 182/3/6 180/3/6 183/3/6
f 181/2/6 182/2/6 185/2/6
f 183/2/6 184/2/6 185/2/6
f 182/2/6 183/2/6 185/2/6
f 185/2/6 184/2/6 186/2/6
f 186/2/6 184/2/6 187/2/6
f 187/2/6 184/2/6 188/2/6
f 188/2/6 184/2/6 189/2/6
f 189/2/6 184/2/6 190/2/6
f 186/2/6 187/2/6 192/2/6
f 192/2/6 187/2/6 193/2/6
f 188/2/6 189/2/6 194/2/6
f 194/2/6 189/2/6 195/2/6
f 195/2/6 189/2/6 196/2/6
f 192/2/6 193/2/6 199/2/6
f 191/2/6 192/2/6 199/2/6
f 195/2/6 196/2/6 200/2/6
f 196/2/6 197/2/6 200/2/6
f 195/2/6 200/2/6 202/2/6
f 200/2/6 201/2/6 202/2/6
f 198/2/6 199/2/6 203/2/6
f 199/2/6 193/2/6 204/2/6
f 203/2/6 199/2/6 204/2/6
f 204/2/6 193/2/6 205/2/6
f 202/2/6 201/2/6 208/2/6
f 208/2/6 201/2/6 209/2/6
f 209/2/6 201/2/6 210/2/6
f 206/2/6 207/2/6 211/2/6
f 208/2/6 209/2/6 211/2/6
f 207/2/6 208/2/6 211/2/6
f 204/2/6 205/2/6 211/2/6
f 205/2/6 206/2/6 211/2/6
f 211/2/6 209/2/6 212/2/6
f 212/2/6 209/2/6 213/2/6
f 213/2/6 209/2/6 214/2/6
f 212/2/6 213/2/6 215/2/6
f 215/2/6 213/2/6 216/2/6
f 217/2/6 218/2/6 219/2/6
f 219/2/6 218/2/6 220/2/6
f 219/1/6 220/1/6 222/1/6
f 220/2/6 221/2/6 223/2/6
f 222/1/6 220/1/6 223/1/6
f 222/2/6 223/2/6 224/2/6
f 223/2/6 221/2/6 224/2/6
f 224/2/6 221/2/6 225/2/6
f 219/1/6 222/1/6 226/1/6
f 222/2/6 224/2/6 227/2/6
f 226/1/6 222/1/6 227/1/6
f 224/5/6 225/5/6 228/5/6
f 227/2/6 224/2/6 228/2/6
f 228/5/6 225/5/6 229/5/6
