# MagicaVoxel @ Ephtracy

# group
o 

# material
mtllib Mutant Radar.mtl
usemtl palette

# normals
vn -1 0 0
vn 1 0 0
vn 0 -1 0
vn 0 1 0
vn 0 0 -1
vn 0 0 1

# texcoords
vt 0.138672 0.5
vt 0.541016 0.5
vt 0.681641 0.5
vt 0.751953 0.5
vt 0.841797 0.5
vt 0.845703 0.5
vt 0.919922 0.5
vt 0.927734 0.5

# verts
v -0.5 0 0
v -0.5 0.2 0
v -0.5 0 0.1
v -0.5 0.2 0.1
v -0.4 -0.4 0
v -0.4 -0.3 0
v -0.4 -0.1 0
v -0.4 0 0
v -0.4 -0.4 0.1
v -0.4 -0.3 0.1
v -0.4 -0.1 0.1
v -0.4 0 0.1
v -0.3 -0.3 0
v -0.3 -0.1 0
v -0.3 0.2 0
v -0.3 0.3 0
v -0.3 -0.3 0.1
v -0.3 -0.1 0.1
v -0.3 0.2 0.1
v -0.3 0.3 0.1
v -0.2 0.3 0
v -0.2 0.4 0
v -0.2 0.3 0.1
v -0.2 0.4 0.1
v -0.1 -0.5 0
v -0.1 -0.4 0
v -0.1 -0.5 0.1
v -0.1 -0.4 0.1
v -0.1 -0.3 0.1
v -0.1 -0.2 0.1
v -0.1 -0.1 0.1
v -0.1 0.2 0.1
v -0.1 -0.3 0.2
v -0.1 -0.2 0.2
v -0.1 -0.1 0.2
v -0.1 0.2 0.2
v 0.1 -0.5 0
v 0.1 -0.4 0
v 0.1 -0.5 0.1
v 0.1 -0.4 0.1
v 0.1 -0.3 0.1
v 0.1 -0.2 0.1
v 0.1 -0.1 0.1
v 0.1 -0.3 0.2
v 0.1 -0.2 0.2
v 0.1 -0.1 0.2
v 0.2 0.3 0
v 0.2 0.4 0
v 0.2 -0.1 0.1
v 0.2 0.1 0.1
v 0.2 0.2 0.1
v 0.2 0.3 0.1
v 0.2 0.4 0.1
v 0.2 -0.1 0.2
v 0.2 0.1 0.2
v 0.2 0.2 0.2
v 0.3 -0.3 0
v 0.3 -0.1 0
v 0.3 0.2 0
v 0.3 0.3 0
v 0.3 -0.3 0.1
v 0.3 -0.1 0.1
v 0.3 0.2 0.1
v 0.3 0.3 0.1
v 0.4 -0.4 0
v 0.4 -0.3 0
v 0.4 -0.1 0
v 0.4 0 0
v 0.4 -0.4 0.1
v 0.4 -0.3 0.1
v 0.4 -0.1 0.1
v 0.4 0 0.1
v 0.5 0 0
v 0.5 0.2 0
v 0.5 0 0.1
v 0.5 0.2 0.1
v -0.1 -0.5 0
v -0.1 -0.5 0.1
v 0.1 -0.5 0
v 0.1 -0.5 0.1
v -0.4 -0.4 0
v -0.4 -0.4 0.1
v -0.2 -0.4 0
v -0.2 -0.4 0.1
v -0.1 -0.4 0
v -0.1 -0.4 0.1
v 0.1 -0.4 0
v 0.1 -0.4 0.1
v 0.2 -0.4 0
v 0.2 -0.4 0.1
v 0.4 -0.4 0
v 0.4 -0.4 0.1
v -0.1 -0.3 0.1
v -0.1 -0.3 0.2
v 0.1 -0.3 0.1
v 0.1 -0.3 0.2
v -0.4 -0.1 0
v -0.4 -0.1 0.1
v -0.3 -0.1 0
v -0.3 -0.1 0.1
v 0.1 -0.1 0.1
v 0.1 -0.1 0.2
v 0.2 -0.1 0.1
v 0.2 -0.1 0.2
v 0.3 -0.1 0
v 0.3 -0.1 0.1
v 0.4 -0.1 0
v 0.4 -0.1 0.1
v -0.5 0 0
v -0.5 0 0.1
v -0.4 0 0
v -0.4 0 0.1
v 0.4 0 0
v 0.4 0 0.1
v 0.5 0 0
v 0.5 0 0.1
v -0.4 -0.3 0
v -0.4 -0.3 0.1
v -0.3 -0.3 0
v -0.3 -0.3 0.1
v 0.3 -0.3 0
v 0.3 -0.3 0.1
v 0.4 -0.3 0
v 0.4 -0.3 0.1
v -0.5 0.2 0
v -0.5 0.2 0.1
v -0.3 0.2 0
v -0.3 0.2 0.1
v -0.1 0.2 0.1
v -0.1 0.2 0.2
v 0 0.2 0.1
v 0 0.2 0.2
v 0.1 0.2 0.1
v 0.1 0.2 0.2
v 0.2 0.2 0.1
v 0.2 0.2 0.2
v 0.3 0.2 0
v 0.3 0.2 0.1
v 0.5 0.2 0
v 0.5 0.2 0.1
v -0.3 0.3 0
v -0.3 0.3 0.1
v -0.2 0.3 0
v -0.2 0.3 0.1
v 0.2 0.3 0
v 0.2 0.3 0.1
v 0.3 0.3 0
v 0.3 0.3 0.1
v -0.2 0.4 0
v -0.2 0.4 0.1
v 0.2 0.4 0
v 0.2 0.4 0.1
v -0.1 -0.5 0
v 0.1 -0.5 0
v -0.4 -0.4 0
v -0.2 -0.4 0
v -0.1 -0.4 0
v 0.1 -0.4 0
v 0.2 -0.4 0
v 0.4 -0.4 0
v -0.4 -0.3 0
v -0.3 -0.3 0
v -0.1 -0.3 0
v 0.1 -0.3 0
v 0.3 -0.3 0
v 0.4 -0.3 0
v -0.2 -0.2 0
v -0.1 -0.2 0
v 0 -0.2 0
v 0.1 -0.2 0
v 0.2 -0.2 0
v -0.4 -0.1 0
v -0.3 -0.1 0
v -0.1 -0.1 0
v 0 -0.1 0
v 0.3 -0.1 0
v 0.4 -0.1 0
v -0.5 0 0
v -0.4 0 0
v -0.1 0 0
v 0 0 0
v 0.4 0 0
v 0.5 0 0
v -0.5 0.2 0
v -0.3 0.2 0
v -0.1 0.2 0
v 0.1 0.2 0
v 0.3 0.2 0
v 0.5 0.2 0
v -0.3 0.3 0
v -0.2 0.3 0
v 0.2 0.3 0
v 0.3 0.3 0
v -0.2 0.4 0
v 0.2 0.4 0
v -0.1 -0.5 0.1
v 0.1 -0.5 0.1
v -0.4 -0.4 0.1
v -0.2 -0.4 0.1
v -0.1 -0.4 0.1
v 0.1 -0.4 0.1
v 0.2 -0.4 0.1
v 0.4 -0.4 0.1
v -0.4 -0.3 0.1
v -0.3 -0.3 0.1
v -0.1 -0.3 0.1
v 0.1 -0.3 0.1
v 0.3 -0.3 0.1
v 0.4 -0.3 0.1
v -0.2 -0.2 0.1
v -0.1 -0.2 0.1
v 0.1 -0.2 0.1
v 0.2 -0.2 0.1
v -0.4 -0.1 0.1
v -0.3 -0.1 0.1
v -0.1 -0.1 0.1
v 0.1 -0.1 0.1
v 0.2 -0.1 0.1
v 0.3 -0.1 0.1
v 0.4 -0.1 0.1
v -0.5 0 0.1
v -0.4 0 0.1
v 0.4 0 0.1
v 0.5 0 0.1
v 0.2 0.1 0.1
v -0.5 0.2 0.1
v -0.3 0.2 0.1
v -0.1 0.2 0.1
v 0 0.2 0.1
v 0.1 0.2 0.1
v 0.2 0.2 0.1
v 0.3 0.2 0.1
v 0.5 0.2 0.1
v -0.3 0.3 0.1
v -0.2 0.3 0.1
v 0.2 0.3 0.1
v 0.3 0.3 0.1
v -0.2 0.4 0.1
v 0.2 0.4 0.1
v -0.1 -0.3 0.2
v 0.1 -0.3 0.2
v -0.1 -0.2 0.2
v 0.1 -0.2 0.2
v -0.1 -0.1 0.2
v 0.1 -0.1 0.2
v 0.2 -0.1 0.2
v 0 0 0.2
v 0.1 0 0.2
v 0.1 0.1 0.2
v 0.2 0.1 0.2
v -0.1 0.2 0.2
v 0 0.2 0.2
v 0.1 0.2 0.2
v 0.2 0.2 0.2

# faces
f 3/4/1 2/4/1 1/4/1
f 4/4/1 2/4/1 3/4/1
f 9/4/1 6/4/1 5/4/1
f 10/4/1 6/4/1 9/4/1
f 11/4/1 8/4/1 7/4/1
f 12/4/1 8/4/1 11/4/1
f 17/4/1 14/4/1 13/4/1
f 18/4/1 14/4/1 17/4/1
f 19/4/1 16/4/1 15/4/1
f 20/4/1 16/4/1 19/4/1
f 23/4/1 22/4/1 21/4/1
f 24/4/1 22/4/1 23/4/1
f 27/6/1 26/6/1 25/6/1
f 28/6/1 26/6/1 27/6/1
f 33/5/1 30/5/1 29/5/1
f 34/1/1 31/1/1 30/1/1
f 34/5/1 30/5/1 33/5/1
f 35/3/1 32/3/1 31/3/1
f 35/1/1 31/1/1 34/1/1
f 36/3/1 32/3/1 35/3/1
f 37/6/2 38/6/2 39/6/2
f 39/6/2 38/6/2 40/6/2
f 41/5/2 42/5/2 44/5/2
f 42/1/2 43/1/2 45/1/2
f 44/5/2 42/5/2 45/5/2
f 45/1/2 43/1/2 46/1/2
f 47/4/2 48/4/2 52/4/2
f 52/4/2 48/4/2 53/4/2
f 49/5/2 50/5/2 54/5/2
f 50/8/2 51/8/2 55/8/2
f 54/5/2 50/5/2 55/5/2
f 55/8/2 51/8/2 56/8/2
f 57/4/2 58/4/2 61/4/2
f 61/4/2 58/4/2 62/4/2
f 59/4/2 60/4/2 63/4/2
f 63/4/2 60/4/2 64/4/2
f 65/4/2 66/4/2 69/4/2
f 69/4/2 66/4/2 70/4/2
f 67/4/2 68/4/2 71/4/2
f 71/4/2 68/4/2 72/4/2
f 73/4/2 74/4/2 75/4/2
f 75/4/2 74/4/2 76/4/2
f 79/6/3 78/6/3 77/6/3
f 80/6/3 78/6/3 79/6/3
f 83/4/3 82/4/3 81/4/3
f 84/4/3 82/4/3 83/4/3
f 85/2/3 84/2/3 83/2/3
f 86/2/3 84/2/3 85/2/3
f 89/2/3 88/2/3 87/2/3
f 90/2/3 88/2/3 89/2/3
f 91/4/3 90/4/3 89/4/3
f 92/4/3 90/4/3 91/4/3
f 95/5/3 94/5/3 93/5/3
f 96/5/3 94/5/3 95/5/3
f 99/4/3 98/4/3 97/4/3
f 100/4/3 98/4/3 99/4/3
f 103/5/3 102/5/3 101/5/3
f 104/5/3 102/5/3 103/5/3
f 107/4/3 106/4/3 105/4/3
f 108/4/3 106/4/3 107/4/3
f 111/4/3 110/4/3 109/4/3
f 112/4/3 110/4/3 111/4/3
f 115/4/3 114/4/3 113/4/3
f 116/4/3 114/4/3 115/4/3
f 117/4/4 118/4/4 119/4/4
f 119/4/4 118/4/4 120/4/4
f 121/4/4 122/4/4 123/4/4
f 123/4/4 122/4/4 124/4/4
f 125/4/4 126/4/4 127/4/4
f 127/4/4 126/4/4 128/4/4
f 129/3/4 130/3/4 131/3/4
f 131/3/4 130/3/4 132/3/4
f 131/5/4 132/5/4 133/5/4
f 133/5/4 132/5/4 134/5/4
f 133/8/4 134/8/4 135/8/4
f 135/8/4 134/8/4 136/8/4
f 137/4/4 138/4/4 139/4/4
f 139/4/4 138/4/4 140/4/4
f 141/4/4 142/4/4 143/4/4
f 143/4/4 142/4/4 144/4/4
f 145/4/4 146/4/4 147/4/4
f 147/4/4 146/4/4 148/4/4
f 149/4/4 150/4/4 151/4/4
f 151/4/4 150/4/4 152/4/4
f 157/6/5 154/6/5 153/6/5
f 158/6/5 154/6/5 157/6/5
f 161/4/5 156/4/5 155/4/5
f 162/4/5 156/4/5 161/4/5
f 163/2/5 157/2/5 156/2/5
f 163/5/5 158/5/5 157/5/5
f 164/2/5 159/2/5 158/2/5
f 164/5/5 158/5/5 163/5/5
f 165/4/5 160/4/5 159/4/5
f 166/4/5 160/4/5 165/4/5
f 167/4/5 156/4/5 162/4/5
f 167/2/5 163/2/5 156/2/5
f 168/4/5 164/4/5 163/4/5
f 168/2/5 163/2/5 167/2/5
f 169/4/5 164/4/5 168/4/5
f 170/2/5 159/2/5 164/2/5
f 170/4/5 164/4/5 169/4/5
f 171/4/5 165/4/5 159/4/5
f 171/2/5 159/2/5 170/2/5
f 173/4/5 167/4/5 162/4/5
f 174/3/5 169/3/5 168/3/5
f 174/1/5 168/1/5 167/1/5
f 175/4/5 170/4/5 169/4/5
f 175/3/5 169/3/5 174/3/5
f 176/4/5 165/4/5 171/4/5
f 179/4/5 173/4/5 172/4/5
f 180/1/5 174/1/5 167/1/5
f 180/7/5 175/7/5 174/7/5
f 181/4/5 170/4/5 175/4/5
f 181/7/5 175/7/5 180/7/5
f 182/4/5 177/4/5 176/4/5
f 184/4/5 179/4/5 178/4/5
f 185/4/5 167/4/5 173/4/5
f 185/4/5 179/4/5 184/4/5
f 185/4/5 173/4/5 179/4/5
f 186/1/5 180/1/5 167/1/5
f 186/4/5 181/4/5 180/4/5
f 187/4/5 170/4/5 181/4/5
f 187/4/5 181/4/5 186/4/5
f 187/1/5 171/1/5 170/1/5
f 188/4/5 182/4/5 176/4/5
f 188/4/5 183/4/5 182/4/5
f 188/4/5 176/4/5 171/4/5
f 189/4/5 183/4/5 188/4/5
f 190/4/5 167/4/5 185/4/5
f 191/1/5 186/1/5 167/1/5
f 191/4/5 167/4/5 190/4/5
f 191/1/5 187/1/5 186/1/5
f 192/1/5 171/1/5 187/1/5
f 192/1/5 187/1/5 191/1/5
f 192/4/5 188/4/5 171/4/5
f 193/4/5 188/4/5 192/4/5
f 194/4/5 192/4/5 191/4/5
f 195/4/5 192/4/5 194/4/5
f 196/6/6 197/6/6 200/6/6
f 200/6/6 197/6/6 201/6/6
f 198/4/6 199/4/6 204/4/6
f 204/4/6 199/4/6 205/4/6
f 199/2/6 200/2/6 206/2/6
f 200/5/6 201/5/6 206/5/6
f 201/2/6 202/2/6 207/2/6
f 206/5/6 201/5/6 207/5/6
f 202/4/6 203/4/6 208/4/6
f 208/4/6 203/4/6 209/4/6
f 205/4/6 199/4/6 210/4/6
f 199/2/6 206/2/6 210/2/6
f 210/2/6 206/2/6 211/2/6
f 207/2/6 202/2/6 212/2/6
f 202/4/6 208/4/6 213/4/6
f 212/2/6 202/2/6 213/2/6
f 205/4/6 210/4/6 215/4/6
f 210/1/6 211/1/6 216/1/6
f 212/1/6 213/1/6 217/1/6
f 213/4/6 208/4/6 218/4/6
f 217/1/6 213/1/6 218/1/6
f 218/4/6 208/4/6 219/4/6
f 214/4/6 215/4/6 222/4/6
f 218/4/6 219/4/6 223/4/6
f 219/4/6 220/4/6 223/4/6
f 218/4/6 223/4/6 225/4/6
f 223/4/6 224/4/6 225/4/6
f 221/4/6 222/4/6 226/4/6
f 215/4/6 210/4/6 227/4/6
f 226/4/6 222/4/6 227/4/6
f 222/4/6 215/4/6 227/4/6
f 210/1/6 216/1/6 228/1/6
f 225/4/6 224/4/6 231/4/6
f 231/4/6 224/4/6 232/4/6
f 232/4/6 224/4/6 233/4/6
f 227/4/6 210/4/6 234/4/6
f 229/1/6 230/1/6 235/1/6
f 234/4/6 210/4/6 235/4/6
f 210/1/6 228/1/6 235/1/6
f 230/1/6 231/1/6 235/1/6
f 228/1/6 229/1/6 235/1/6
f 231/4/6 232/4/6 236/4/6
f 235/1/6 231/1/6 236/1/6
f 236/4/6 232/4/6 237/4/6
f 235/4/6 236/4/6 238/4/6
f 238/4/6 236/4/6 239/4/6
f 240/5/6 241/5/6 242/5/6
f 242/5/6 241/5/6 243/5/6
f 242/1/6 243/1/6 244/1/6
f 244/1/6 243/1/6 245/1/6
f 244/3/6 245/3/6 247/3/6
f 245/5/6 246/5/6 248/5/6
f 247/3/6 245/3/6 248/3/6
f 247/5/6 248/5/6 249/5/6
f 248/5/6 246/5/6 249/5/6
f 249/5/6 246/5/6 250/5/6
f 244/3/6 247/3/6 251/3/6
f 247/5/6 249/5/6 252/5/6
f 251/3/6 247/3/6 252/3/6
f 249/8/6 250/8/6 253/8/6
f 252/5/6 249/5/6 253/5/6
f 253/8/6 250/8/6 254/8/6
