# MagicaVoxel @ Ephtracy

# group
o 

# material
mtllib Person.mtl
usemtl palette

# normals
vn -1 0 0
vn 1 0 0
vn 0 -1 0
vn 0 1 0
vn 0 0 -1
vn 0 0 1

# texcoords
vt 0.00976563 0.5
vt 0.158203 0.5
vt 0.775391 0.5
vt 0.990234 0.5

# verts
v -0.9 -0.4 0.8
v -0.9 0.7 0.8
v -0.9 1.3 0.8
v -0.9 -0.4 1.1
v -0.9 0.7 1.1
v -0.9 1.3 1.1
v -0.5 -2 0.8
v -0.5 -1.9 0.8
v -0.5 -0.0999999 0.8
v -0.5 1 0.8
v -0.5 -1.9 1
v -0.5 -1.8 1
v -0.5 -1.8 1.1
v -0.5 -0.0999999 1.1
v -0.5 1 1.1
v -0.5 -2 1.5
v -0.5 -1.8 1.5
v -0.3 1.5 0.7
v -0.3 2 0.7
v -0.3 1.5 1.2
v -0.3 2 1.2
v -0.2 1.3 0.8
v -0.2 1.5 0.8
v -0.2 1.3 1.1
v -0.2 1.5 1.1
v 0.1 -1.9 0.8
v 0.1 -0.4 0.8
v 0.1 -1.9 1.1
v 0.1 -0.4 1.1
v 0.2 -2 0.8
v 0.2 -1.9 0.8
v 0.2 -1.9 1.1
v 0.2 -1.8 1.1
v 0.2 -2 1.5
v 0.2 -1.8 1.5
v 0.6 -0.4 0.8
v 0.6 0.7 0.8
v 0.6 1 0.8
v 0.6 -0.4 1.1
v 0.6 0.7 1.1
v 0.6 1 1.1
v -0.6 -0.4 0.8
v -0.6 0.7 0.8
v -0.6 1 0.8
v -0.6 -0.4 1.1
v -0.6 0.7 1.1
v -0.6 1 1.1
v -0.2 -2 0.8
v -0.2 -1.9 0.8
v -0.2 -1.9 1.1
v -0.2 -1.8 1.1
v -0.2 -2 1.5
v -0.2 -1.8 1.5
v -0.1 -1.9 0.8
v -0.1 -0.4 0.8
v -0.1 -1.9 1.1
v -0.1 -0.4 1.1
v 0.2 1.3 0.8
v 0.2 1.5 0.8
v 0.2 1.3 1.1
v 0.2 1.5 1.1
v 0.3 1.5 0.7
v 0.3 2 0.7
v 0.3 1.5 1.2
v 0.3 2 1.2
v 0.5 -2 0.8
v 0.5 -1.9 0.8
v 0.5 -0.0999999 0.8
v 0.5 1 0.8
v 0.5 -1.9 1
v 0.5 -1.8 1
v 0.5 -1.8 1.1
v 0.5 -0.0999999 1.1
v 0.5 1 1.1
v 0.5 -2 1.5
v 0.5 -1.8 1.5
v 0.9 -0.4 0.8
v 0.9 0.7 0.8
v 0.9 1.3 0.8
v 0.9 -0.4 1.1
v 0.9 0.7 1.1
v 0.9 1.3 1.1
v -0.5 -2 0.8
v -0.5 -2 1.5
v -0.2 -2 0.8
v -0.2 -2 1.5
v 0.2 -2 0.8
v 0.2 -2 1.5
v 0.5 -2 0.8
v 0.5 -2 1.5
v -0.2 -1.9 0.8
v -0.2 -1.9 1.1
v -0.1 -1.9 0.8
v -0.1 -1.9 1.1
v 0.1 -1.9 0.8
v 0.1 -1.9 1.1
v 0.2 -1.9 0.8
v 0.2 -1.9 1.1
v -0.9 -0.4 0.8
v -0.9 -0.4 1.1
v -0.6 -0.4 0.8
v -0.6 -0.4 1.1
v -0.1 -0.4 0.8
v -0.1 -0.4 1.1
v 0.1 -0.4 0.8
v 0.1 -0.4 1.1
v 0.6 -0.4 0.8
v 0.6 -0.4 1.1
v 0.9 -0.4 0.8
v 0.9 -0.4 1.1
v -0.6 1 0.8
v -0.6 1 1.1
v -0.5 1 0.8
v -0.5 1 1.1
v 0.5 1 0.8
v 0.5 1 1.1
v 0.6 1 0.8
v 0.6 1 1.1
v -0.3 1.5 0.7
v -0.3 1.5 1.2
v -0.2 1.5 0.8
v -0.2 1.5 1.1
v 0.2 1.5 0.8
v 0.2 1.5 1.1
v 0.3 1.5 0.7
v 0.3 1.5 1.2
v -0.5 -1.8 1.1
v -0.5 -1.8 1.5
v -0.2 -1.8 1.1
v -0.2 -1.8 1.5
v 0.2 -1.8 1.1
v 0.2 -1.8 1.5
v 0.5 -1.8 1.1
v 0.5 -1.8 1.5
v -0.9 1.3 0.8
v -0.9 1.3 1.1
v -0.2 1.3 0.8
v -0.2 1.3 1.1
v 0.2 1.3 0.8
v 0.2 1.3 1.1
v 0.9 1.3 0.8
v 0.9 1.3 1.1
v -0.3 2 0.7
v -0.3 2 1.2
v 0.3 2 0.7
v 0.3 2 1.2
v -0.3 1.5 0.7
v 0.3 1.5 0.7
v -0.3 2 0.7
v 0.3 2 0.7
v -0.5 -2 0.8
v -0.2 -2 0.8
v 0.2 -2 0.8
v 0.5 -2 0.8
v -0.5 -1.9 0.8
v -0.2 -1.9 0.8
v -0.1 -1.9 0.8
v 0.1 -1.9 0.8
v 0.2 -1.9 0.8
v 0.5 -1.9 0.8
v -0.9 -0.4 0.8
v -0.6 -0.4 0.8
v -0.1 -0.4 0.8
v 0.1 -0.4 0.8
v 0.6 -0.4 0.8
v 0.9 -0.4 0.8
v -0.5 -0.0999999 0.8
v 0.5 -0.0999999 0.8
v -0.9 0.7 0.8
v -0.6 0.7 0.8
v 0.6 0.7 0.8
v 0.9 0.7 0.8
v -0.6 1 0.8
v -0.5 1 0.8
v 0.5 1 0.8
v 0.6 1 0.8
v -0.9 1.3 0.8
v -0.2 1.3 0.8
v 0.2 1.3 0.8
v 0.9 1.3 0.8
v -0.2 1.5 0.8
v 0.2 1.5 0.8
v -0.2 -1.9 1.1
v -0.1 -1.9 1.1
v 0.1 -1.9 1.1
v 0.2 -1.9 1.1
v -0.5 -1.8 1.1
v -0.2 -1.8 1.1
v 0.2 -1.8 1.1
v 0.5 -1.8 1.1
v -0.9 -0.4 1.1
v -0.6 -0.4 1.1
v -0.1 -0.4 1.1
v 0.1 -0.4 1.1
v 0.6 -0.4 1.1
v 0.9 -0.4 1.1
v -0.5 -0.0999999 1.1
v 0.5 -0.0999999 1.1
v -0.9 0.7 1.1
v -0.6 0.7 1.1
v 0.6 0.7 1.1
v 0.9 0.7 1.1
v -0.6 1 1.1
v -0.5 1 1.1
v 0.5 1 1.1
v 0.6 1 1.1
v -0.9 1.3 1.1
v -0.2 1.3 1.1
v 0.2 1.3 1.1
v 0.9 1.3 1.1
v -0.2 1.5 1.1
v 0.2 1.5 1.1
v -0.3 1.5 1.2
v 0.3 1.5 1.2
v -0.3 2 1.2
v 0.3 2 1.2
v -0.5 -2 1.5
v -0.2 -2 1.5
v 0.2 -2 1.5
v 0.5 -2 1.5
v -0.5 -1.8 1.5
v -0.2 -1.8 1.5
v 0.2 -1.8 1.5
v 0.5 -1.8 1.5

# faces
f 4/1/1 2/1/1 1/1/1
f 5/2/1 3/2/1 2/2/1
f 5/1/1 2/1/1 4/1/1
f 6/2/1 3/2/1 5/2/1
f 11/4/1 8/4/1 7/4/1
f 11/3/1 9/3/1 8/3/1
f 12/3/1 9/3/1 11/3/1
f 13/4/1 12/4/1 11/4/1
f 13/3/1 9/3/1 12/3/1
f 14/2/1 10/2/1 9/2/1
f 14/3/1 9/3/1 13/3/1
f 15/2/1 10/2/1 14/2/1
f 16/4/1 13/4/1 11/4/1
f 16/4/1 11/4/1 7/4/1
f 17/4/1 13/4/1 16/4/1
f 20/1/1 19/1/1 18/1/1
f 21/1/1 19/1/1 20/1/1
f 24/1/1 23/1/1 22/1/1
f 25/1/1 23/1/1 24/1/1
f 28/3/1 27/3/1 26/3/1
f 29/3/1 27/3/1 28/3/1
f 32/4/1 31/4/1 30/4/1
f 34/4/1 32/4/1 30/4/1
f 34/4/1 33/4/1 32/4/1
f 35/4/1 33/4/1 34/4/1
f 39/1/1 37/1/1 36/1/1
f 40/2/1 38/2/1 37/2/1
f 40/1/1 37/1/1 39/1/1
f 41/2/1 38/2/1 40/2/1
f 42/1/2 43/1/2 45/1/2
f 43/2/2 44/2/2 46/2/2
f 45/1/2 43/1/2 46/1/2
f 46/2/2 44/2/2 47/2/2
f 48/4/2 49/4/2 50/4/2
f 48/4/2 50/4/2 52/4/2
f 50/4/2 51/4/2 52/4/2
f 52/4/2 51/4/2 53/4/2
f 54/3/2 55/3/2 56/3/2
f 56/3/2 55/3/2 57/3/2
f 58/1/2 59/1/2 60/1/2
f 60/1/2 59/1/2 61/1/2
f 62/1/2 63/1/2 64/1/2
f 64/1/2 63/1/2 65/1/2
f 66/4/2 67/4/2 70/4/2
f 67/3/2 68/3/2 70/3/2
f 70/3/2 68/3/2 71/3/2
f 70/4/2 71/4/2 72/4/2
f 71/3/2 68/3/2 72/3/2
f 68/2/2 69/2/2 73/2/2
f 72/3/2 68/3/2 73/3/2
f 73/2/2 69/2/2 74/2/2
f 70/4/2 72/4/2 75/4/2
f 66/4/2 70/4/2 75/4/2
f 75/4/2 72/4/2 76/4/2
f 77/1/2 78/1/2 80/1/2
f 78/2/2 79/2/2 81/2/2
f 80/1/2 78/1/2 81/1/2
f 81/2/2 79/2/2 82/2/2
f 85/4/3 84/4/3 83/4/3
f 86/4/3 84/4/3 85/4/3
f 89/4/3 88/4/3 87/4/3
f 90/4/3 88/4/3 89/4/3
f 93/3/3 92/3/3 91/3/3
f 94/3/3 92/3/3 93/3/3
f 97/3/3 96/3/3 95/3/3
f 98/3/3 96/3/3 97/3/3
f 101/1/3 100/1/3 99/1/3
f 102/1/3 100/1/3 101/1/3
f 105/3/3 104/3/3 103/3/3
f 106/3/3 104/3/3 105/3/3
f 109/1/3 108/1/3 107/1/3
f 110/1/3 108/1/3 109/1/3
f 113/2/3 112/2/3 111/2/3
f 114/2/3 112/2/3 113/2/3
f 117/2/3 116/2/3 115/2/3
f 118/2/3 116/2/3 117/2/3
f 121/1/3 120/1/3 119/1/3
f 122/1/3 120/1/3 121/1/3
f 123/1/3 121/1/3 119/1/3
f 124/1/3 120/1/3 122/1/3
f 125/1/3 123/1/3 119/1/3
f 125/1/3 124/1/3 123/1/3
f 126/1/3 120/1/3 124/1/3
f 126/1/3 124/1/3 125/1/3
f 127/4/4 128/4/4 129/4/4
f 129/4/4 128/4/4 130/4/4
f 131/4/4 132/4/4 133/4/4
f 133/4/4 132/4/4 134/4/4
f 135/2/4 136/2/4 137/2/4
f 137/2/4 136/2/4 138/2/4
f 139/2/4 140/2/4 141/2/4
f 141/2/4 140/2/4 142/2/4
f 143/1/4 144/1/4 145/1/4
f 145/1/4 144/1/4 146/1/4
f 149/1/5 148/1/5 147/1/5
f 150/1/5 148/1/5 149/1/5
f 155/4/5 152/4/5 151/4/5
f 156/4/5 152/4/5 155/4/5
f 159/4/5 154/4/5 153/4/5
f 160/4/5 154/4/5 159/4/5
f 163/3/5 157/3/5 156/3/5
f 163/3/5 156/3/5 155/3/5
f 164/3/5 159/3/5 158/3/5
f 164/3/5 160/3/5 159/3/5
f 167/3/5 164/3/5 163/3/5
f 167/3/5 163/3/5 155/3/5
f 168/3/5 160/3/5 164/3/5
f 168/3/5 164/3/5 167/3/5
f 169/1/5 162/1/5 161/1/5
f 170/1/5 162/1/5 169/1/5
f 171/1/5 166/1/5 165/1/5
f 172/1/5 166/1/5 171/1/5
f 173/2/5 170/2/5 169/2/5
f 174/2/5 168/2/5 167/2/5
f 175/2/5 168/2/5 174/2/5
f 176/2/5 172/2/5 171/2/5
f 177/2/5 173/2/5 169/2/5
f 177/2/5 176/2/5 175/2/5
f 177/2/5 175/2/5 174/2/5
f 177/2/5 174/2/5 173/2/5
f 178/2/5 176/2/5 177/2/5
f 179/2/5 176/2/5 178/2/5
f 180/2/5 172/2/5 176/2/5
f 180/2/5 176/2/5 179/2/5
f 181/1/5 179/1/5 178/1/5
f 182/1/5 179/1/5 181/1/5
f 183/3/6 184/3/6 188/3/6
f 185/3/6 186/3/6 189/3/6
f 187/3/6 188/3/6 193/3/6
f 188/3/6 184/3/6 193/3/6
f 189/3/6 190/3/6 194/3/6
f 185/3/6 189/3/6 194/3/6
f 187/3/6 193/3/6 197/3/6
f 193/3/6 194/3/6 197/3/6
f 194/3/6 190/3/6 198/3/6
f 197/3/6 194/3/6 198/3/6
f 191/1/6 192/1/6 199/1/6
f 199/1/6 192/1/6 200/1/6
f 195/1/6 196/1/6 201/1/6
f 201/1/6 196/1/6 202/1/6
f 199/2/6 200/2/6 203/2/6
f 197/2/6 198/2/6 204/2/6
f 204/2/6 198/2/6 205/2/6
f 201/2/6 202/2/6 206/2/6
f 199/2/6 203/2/6 207/2/6
f 205/2/6 206/2/6 207/2/6
f 204/2/6 205/2/6 207/2/6
f 203/2/6 204/2/6 207/2/6
f 207/2/6 206/2/6 208/2/6
f 208/2/6 206/2/6 209/2/6
f 206/2/6 202/2/6 210/2/6
f 209/2/6 206/2/6 210/2/6
f 208/1/6 209/1/6 211/1/6
f 211/1/6 209/1/6 212/1/6
f 213/1/6 214/1/6 215/1/6
f 215/1/6 214/1/6 216/1/6
f 217/4/6 218/4/6 221/4/6
f 221/4/6 218/4/6 222/4/6
f 219/4/6 220/4/6 223/4/6
f 223/4/6 220/4/6 224/4/6
