# MagicaVoxel @ Ephtracy

# group
o 

# material
mtllib RadarHOutline.mtl
usemtl palette

# normals
vn -1 0 0
vn 1 0 0
vn 0 -1 0
vn 0 1 0
vn 0 0 -1
vn 0 0 1

# texcoords
vt 0.927734 0.5
vt 0.958984 0.5
vt 0.966797 0.5

# verts
v -12.8 -0.2 0
v -12.8 0.2 0
v -12.8 -0.2 0.1
v -12.8 0.2 0.1
v -2.5 0.2 0
v -2.5 0.6 0
v -2.5 0.2 0.1
v -2.5 0.6 0.1
v -1 0.2 0
v -1 0.4 0
v -1 0.2 0.1
v -1 0.4 0.1
v 1.1 0.2 0
v 1.1 0.4 0
v 1.1 0.2 0.1
v 1.1 0.4 0.1
v 2.5 0.2 0
v 2.5 0.6 0
v 2.5 0.2 0.1
v 2.5 0.6 0.1
v -2.4 0.2 0
v -2.4 0.6 0
v -2.4 0.2 0.1
v -2.4 0.6 0.1
v -0.900001 0.2 0
v -0.900001 0.4 0
v -0.900001 0.2 0.1
v -0.900001 0.4 0.1
v 1.2 0.2 0
v 1.2 0.4 0
v 1.2 0.2 0.1
v 1.2 0.4 0.1
v 2.6 0.2 0
v 2.6 0.6 0
v 2.6 0.2 0.1
v 2.6 0.6 0.1
v 12.8 -0.2 0
v 12.8 0.2 0
v 12.8 -0.2 0.1
v 12.8 0.2 0.1
v -12.8 -0.2 0
v -12.8 -0.2 0.1
v 12.8 -0.2 0
v 12.8 -0.2 0.1
v -12.8 0.2 0
v -12.8 0.2 0.1
v -2.5 0.2 0
v -2.5 0.2 0.1
v -2.4 0.2 0
v -2.4 0.2 0.1
v -1 0.2 0
v -1 0.2 0.1
v -0.900001 0.2 0
v -0.900001 0.2 0.1
v 1.1 0.2 0
v 1.1 0.2 0.1
v 1.2 0.2 0
v 1.2 0.2 0.1
v 2.5 0.2 0
v 2.5 0.2 0.1
v 2.6 0.2 0
v 2.6 0.2 0.1
v 12.8 0.2 0
v 12.8 0.2 0.1
v -1 0.4 0
v -1 0.4 0.1
v -0.900001 0.4 0
v -0.900001 0.4 0.1
v 1.1 0.4 0
v 1.1 0.4 0.1
v 1.2 0.4 0
v 1.2 0.4 0.1
v -2.5 0.6 0
v -2.5 0.6 0.1
v -2.4 0.6 0
v -2.4 0.6 0.1
v 2.5 0.6 0
v 2.5 0.6 0.1
v 2.6 0.6 0
v 2.6 0.6 0.1
v -12.8 -0.2 0
v 12.8 -0.2 0
v -2.5 0.1 0
v 2.6 0.1 0
v -12.8 0.2 0
v -2.5 0.2 0
v -2.4 0.2 0
v -1 0.2 0
v -0.900001 0.2 0
v 1.1 0.2 0
v 1.2 0.2 0
v 2.5 0.2 0
v 2.6 0.2 0
v 12.8 0.2 0
v -1 0.4 0
v -0.900001 0.4 0
v 1.1 0.4 0
v 1.2 0.4 0
v -2.5 0.6 0
v -2.4 0.6 0
v 2.5 0.6 0
v 2.6 0.6 0
v -12.8 -0.2 0.1
v 12.8 -0.2 0.1
v -2.5 0.1 0.1
v 2.6 0.1 0.1
v -12.8 0.2 0.1
v -2.5 0.2 0.1
v -2.4 0.2 0.1
v -1 0.2 0.1
v -0.900001 0.2 0.1
v 1.1 0.2 0.1
v 1.2 0.2 0.1
v 2.5 0.2 0.1
v 2.6 0.2 0.1
v 12.8 0.2 0.1
v -1 0.4 0.1
v -0.900001 0.4 0.1
v 1.1 0.4 0.1
v 1.2 0.4 0.1
v -2.5 0.6 0.1
v -2.4 0.6 0.1
v 2.5 0.6 0.1
v 2.6 0.6 0.1

# faces
f 3/1/1 2/1/1 1/1/1
f 4/1/1 2/1/1 3/1/1
f 7/2/1 6/2/1 5/2/1
f 8/2/1 6/2/1 7/2/1
f 11/3/1 10/3/1 9/3/1
f 12/3/1 10/3/1 11/3/1
f 15/3/1 14/3/1 13/3/1
f 16/3/1 14/3/1 15/3/1
f 19/2/1 18/2/1 17/2/1
f 20/2/1 18/2/1 19/2/1
f 21/2/2 22/2/2 23/2/2
f 23/2/2 22/2/2 24/2/2
f 25/3/2 26/3/2 27/3/2
f 27/3/2 26/3/2 28/3/2
f 29/3/2 30/3/2 31/3/2
f 31/3/2 30/3/2 32/3/2
f 33/2/2 34/2/2 35/2/2
f 35/2/2 34/2/2 36/2/2
f 37/1/2 38/1/2 39/1/2
f 39/1/2 38/1/2 40/1/2
f 43/1/3 42/1/3 41/1/3
f 44/1/3 42/1/3 43/1/3
f 45/1/4 46/1/4 47/1/4
f 47/1/4 46/1/4 48/1/4
f 49/3/4 50/3/4 51/3/4
f 51/3/4 50/3/4 52/3/4
f 53/3/4 54/3/4 55/3/4
f 55/3/4 54/3/4 56/3/4
f 57/3/4 58/3/4 59/3/4
f 59/3/4 58/3/4 60/3/4
f 61/1/4 62/1/4 63/1/4
f 63/1/4 62/1/4 64/1/4
f 65/3/4 66/3/4 67/3/4
f 67/3/4 66/3/4 68/3/4
f 69/3/4 70/3/4 71/3/4
f 71/3/4 70/3/4 72/3/4
f 73/2/4 74/2/4 75/2/4
f 75/2/4 74/2/4 76/2/4
f 77/2/4 78/2/4 79/2/4
f 79/2/4 78/2/4 80/2/4
f 83/1/5 82/1/5 81/1/5
f 84/1/5 82/1/5 83/1/5
f 85/1/5 83/1/5 81/1/5
f 86/3/5 84/3/5 83/3/5
f 86/1/5 83/1/5 85/1/5
f 87/3/5 84/3/5 86/3/5
f 88/3/5 84/3/5 87/3/5
f 89/3/5 84/3/5 88/3/5
f 90/3/5 84/3/5 89/3/5
f 91/3/5 84/3/5 90/3/5
f 92/3/5 84/3/5 91/3/5
f 93/1/5 82/1/5 84/1/5
f 93/3/5 84/3/5 92/3/5
f 94/1/5 82/1/5 93/1/5
f 95/3/5 89/3/5 88/3/5
f 96/3/5 89/3/5 95/3/5
f 97/3/5 91/3/5 90/3/5
f 98/3/5 91/3/5 97/3/5
f 99/2/5 87/2/5 86/2/5
f 100/2/5 87/2/5 99/2/5
f 101/2/5 93/2/5 92/2/5
f 102/2/5 93/2/5 101/2/5
f 103/1/6 104/1/6 105/1/6
f 105/1/6 104/1/6 106/1/6
f 103/1/6 105/1/6 107/1/6
f 105/3/6 106/3/6 108/3/6
f 107/1/6 105/1/6 108/1/6
f 108/3/6 106/3/6 109/3/6
f 109/3/6 106/3/6 110/3/6
f 110/3/6 106/3/6 111/3/6
f 111/3/6 106/3/6 112/3/6
f 112/3/6 106/3/6 113/3/6
f 113/3/6 106/3/6 114/3/6
f 106/1/6 104/1/6 115/1/6
f 114/3/6 106/3/6 115/3/6
f 115/1/6 104/1/6 116/1/6
f 110/3/6 111/3/6 117/3/6
f 117/3/6 111/3/6 118/3/6
f 112/3/6 113/3/6 119/3/6
f 119/3/6 113/3/6 120/3/6
f 108/2/6 109/2/6 121/2/6
f 121/2/6 109/2/6 122/2/6
f 114/2/6 115/2/6 123/2/6
f 123/2/6 115/2/6 124/2/6
