# MagicaVoxel @ Ephtracy

# group
o 

# material
mtllib Swarmer.mtl
usemtl palette

# normals
vn -1 0 0
vn 1 0 0
vn 0 -1 0
vn 0 1 0
vn 0 0 -1
vn 0 0 1

# texcoords
vt 0.0175781 0.5
vt 0.841797 0.5

# verts
v -6 -2 3
v -6 -1 3
v -6 -2 8
v -6 -1 8
v -5 -2 2
v -5 -1 2
v -5 -3 3
v -5 -2 3
v -5 -1 3
v -5 0 3
v -5 -1 4
v -5 0 4
v -5 -1 7
v -5 0 7
v -5 -3 8
v -5 -2 8
v -5 -1 8
v -5 0 8
v -5 -2 9
v -5 -1 9
v -4 -2 1
v -4 -1 1
v -4 -3 2
v -4 -2 2
v -4 -1 2
v -4 0 2
v -4 -3 3
v -4 -2 3
v -4 -1 3
v -4 0 3
v -4 -4 4
v -4 -3 4
v -4 0 4
v -4 1 4
v -4 -4 7
v -4 -3 7
v -4 0 7
v -4 1 7
v -4 -3 8
v -4 -2 8
v -4 -1 8
v -4 0 8
v -4 -3 9
v -4 -2 9
v -4 -1 9
v -4 0 9
v -4 -2 10
v -4 -1 10
v -3 -2 0
v -3 -1 0
v -3 -3 1
v -3 -2 1
v -3 -1 1
v -3 0 1
v -3 -3 2
v -3 -2 2
v -3 -1 2
v -3 0 2
v -3 -4 3
v -3 -3 3
v -3 0 3
v -3 1 3
v -3 -5 4
v -3 -4 4
v -3 -3 4
v -3 0 4
v -3 1 4
v -3 2 4
v -3 -5 7
v -3 -4 7
v -3 -3 7
v -3 0 7
v -3 1 7
v -3 2 7
v -3 -4 8
v -3 -3 8
v -3 0 8
v -3 1 8
v -3 -3 9
v -3 -2 9
v -3 -1 9
v -3 0 9
v -3 -3 10
v -3 -2 10
v -3 -1 10
v -3 0 10
v -3 -2 11
v -3 -1 11
v -2 -4 2
v -2 -3 2
v -2 0 2
v -2 1 2
v -2 -5 3
v -2 -4 3
v -2 -3 3
v -2 0 3
v -2 1 3
v -2 2 3
v -2 -5 4
v -2 -4 4
v -2 1 4
v -2 2 4
v -2 3 4
v -2 -5 7
v -2 -4 7
v -2 1 7
v -2 2 7
v -2 3 7
v -2 -5 8
v -2 -4 8
v -2 -3 8
v -2 0 8
v -2 1 8
v -2 2 8
v -2 -4 9
v -2 -3 9
v -2 0 9
v -2 1 9
v -1 3 5
v -1 4 5
v -1 3 6
v -1 4 6
v 0 3 5
v 0 4 5
v 0 3 6
v 0 4 6
v 1 -4 2
v 1 -3 2
v 1 0 2
v 1 1 2
v 1 -5 3
v 1 -4 3
v 1 -3 3
v 1 0 3
v 1 1 3
v 1 2 3
v 1 -5 4
v 1 -4 4
v 1 1 4
v 1 2 4
v 1 3 4
v 1 -5 7
v 1 -4 7
v 1 1 7
v 1 2 7
v 1 3 7
v 1 -5 8
v 1 -4 8
v 1 -3 8
v 1 0 8
v 1 1 8
v 1 2 8
v 1 -4 9
v 1 -3 9
v 1 0 9
v 1 1 9
v 2 -2 0
v 2 -1 0
v 2 -3 1
v 2 -2 1
v 2 -1 1
v 2 0 1
v 2 -3 2
v 2 -2 2
v 2 -1 2
v 2 0 2
v 2 -4 3
v 2 -3 3
v 2 0 3
v 2 1 3
v 2 -5 4
v 2 -4 4
v 2 -3 4
v 2 0 4
v 2 1 4
v 2 2 4
v 2 -5 7
v 2 -4 7
v 2 -3 7
v 2 0 7
v 2 1 7
v 2 2 7
v 2 -4 8
v 2 -3 8
v 2 0 8
v 2 1 8
v 2 -3 9
v 2 -2 9
v 2 -1 9
v 2 0 9
v 2 -3 10
v 2 -2 10
v 2 -1 10
v 2 0 10
v 2 -2 11
v 2 -1 11
v 3 -2 1
v 3 -1 1
v 3 -3 2
v 3 -2 2
v 3 -1 2
v 3 0 2
v 3 -3 3
v 3 -2 3
v 3 -1 3
v 3 0 3
v 3 -4 4
v 3 -3 4
v 3 0 4
v 3 1 4
v 3 -4 7
v 3 -3 7
v 3 0 7
v 3 1 7
v 3 -3 8
v 3 -2 8
v 3 -1 8
v 3 0 8
v 3 -3 9
v 3 -2 9
v 3 -1 9
v 3 0 9
v 3 -2 10
v 3 -1 10
v 4 -2 2
v 4 -1 2
v 4 -3 3
v 4 -2 3
v 4 -1 3
v 4 0 3
v 4 -1 4
v 4 0 4
v 4 -1 7
v 4 0 7
v 4 -3 8
v 4 -2 8
v 4 -1 8
v 4 0 8
v 4 -2 9
v 4 -1 9
v 5 -2 3
v 5 -1 3
v 5 -2 8
v 5 -1 8
v -3 -5 4
v -3 -5 7
v -2 -5 3
v -2 -5 4
v -2 -5 7
v -2 -5 8
v 1 -5 3
v 1 -5 4
v 1 -5 7
v 1 -5 8
v 2 -5 4
v 2 -5 7
v -4 -4 4
v -4 -4 7
v -3 -4 3
v -3 -4 4
v -3 -4 7
v -3 -4 8
v -2 -4 2
v -2 -4 3
v -2 -4 4
v -2 -4 7
v -2 -4 8
v -2 -4 9
v 1 -4 2
v 1 -4 3
v 1 -4 4
v 1 -4 7
v 1 -4 8
v 1 -4 9
v 2 -4 3
v 2 -4 4
v 2 -4 7
v 2 -4 8
v 3 -4 4
v 3 -4 7
v -5 -3 3
v -5 -3 8
v -4 -3 2
v -4 -3 3
v -4 -3 4
v -4 -3 7
v -4 -3 8
v -4 -3 9
v -3 -3 1
v -3 -3 2
v -3 -3 3
v -3 -3 4
v -3 -3 7
v -3 -3 8
v -3 -3 9
v -3 -3 10
v -2 -3 2
v -2 -3 3
v -2 -3 8
v -2 -3 9
v 1 -3 2
v 1 -3 3
v 1 -3 8
v 1 -3 9
v 2 -3 1
v 2 -3 2
v 2 -3 3
v 2 -3 4
v 2 -3 7
v 2 -3 8
v 2 -3 9
v 2 -3 10
v 3 -3 2
v 3 -3 3
v 3 -3 4
v 3 -3 7
v 3 -3 8
v 3 -3 9
v 4 -3 3
v 4 -3 8
v -6 -2 3
v -6 -2 8
v -5 -2 2
v -5 -2 3
v -5 -2 8
v -5 -2 9
v -4 -2 1
v -4 -2 2
v -4 -2 3
v -4 -2 8
v -4 -2 9
v -4 -2 10
v -3 -2 0
v -3 -2 1
v -3 -2 2
v -3 -2 9
v -3 -2 10
v -3 -2 11
v 2 -2 0
v 2 -2 1
v 2 -2 2
v 2 -2 9
v 2 -2 10
v 2 -2 11
v 3 -2 1
v 3 -2 2
v 3 -2 3
v 3 -2 8
v 3 -2 9
v 3 -2 10
v 4 -2 2
v 4 -2 3
v 4 -2 8
v 4 -2 9
v 5 -2 3
v 5 -2 8
v -6 -1 3
v -6 -1 8
v -5 -1 2
v -5 -1 3
v -5 -1 4
v -5 -1 7
v -5 -1 8
v -5 -1 9
v -4 -1 1
v -4 -1 2
v -4 -1 3
v -4 -1 8
v -4 -1 9
v -4 -1 10
v -3 -1 0
v -3 -1 1
v -3 -1 2
v -3 -1 9
v -3 -1 10
v -3 -1 11
v -2 -1 1
v -2 -1 10
v 1 -1 1
v 1 -1 10
v 2 -1 0
v 2 -1 1
v 2 -1 2
v 2 -1 9
v 2 -1 10
v 2 -1 11
v 3 -1 1
v 3 -1 2
v 3 -1 3
v 3 -1 8
v 3 -1 9
v 3 -1 10
v 4 -1 2
v 4 -1 3
v 4 -1 4
v 4 -1 7
v 4 -1 8
v 4 -1 9
v 5 -1 3
v 5 -1 8
v -5 0 3
v -5 0 4
v -5 0 7
v -5 0 8
v -4 0 2
v -4 0 3
v -4 0 4
v -4 0 7
v -4 0 8
v -4 0 9
v -3 0 1
v -3 0 2
v -3 0 3
v -3 0 4
v -3 0 7
v -3 0 8
v -3 0 9
v -3 0 10
v -2 0 1
v -2 0 2
v -2 0 3
v -2 0 8
v -2 0 9
v -2 0 10
v 1 0 1
v 1 0 2
v 1 0 3
v 1 0 8
v 1 0 9
v 1 0 10
v 2 0 1
v 2 0 2
v 2 0 3
v 2 0 4
v 2 0 7
v 2 0 8
v 2 0 9
v 2 0 10
v 3 0 2
v 3 0 3
v 3 0 4
v 3 0 7
v 3 0 8
v 3 0 9
v 4 0 3
v 4 0 4
v 4 0 7
v 4 0 8
v -4 1 4
v -4 1 7
v -3 1 3
v -3 1 4
v -3 1 7
v -3 1 8
v -2 1 2
v -2 1 3
v -2 1 4
v -2 1 7
v -2 1 8
v -2 1 9
v 1 1 2
v 1 1 3
v 1 1 4
v 1 1 7
v 1 1 8
v 1 1 9
v 2 1 3
v 2 1 4
v 2 1 7
v 2 1 8
v 3 1 4
v 3 1 7
v -3 2 4
v -3 2 7
v -2 2 3
v -2 2 4
v -2 2 7
v -2 2 8
v 1 2 3
v 1 2 4
v 1 2 7
v 1 2 8
v 2 2 4
v 2 2 7
v -2 3 4
v -2 3 7
v -1 3 5
v -1 3 6
v 0 3 5
v 0 3 6
v 1 3 4
v 1 3 7
v -1 4 5
v -1 4 6
v 0 4 5
v 0 4 6
v -3 -2 0
v 2 -2 0
v -3 -1 0
v 2 -1 0
v -3 -3 1
v 2 -3 1
v -4 -2 1
v -3 -2 1
v 2 -2 1
v 3 -2 1
v -4 -1 1
v -3 -1 1
v -2 -1 1
v 1 -1 1
v 2 -1 1
v 3 -1 1
v -3 0 1
v -2 0 1
v 1 0 1
v 2 0 1
v -2 -4 2
v 1 -4 2
v -4 -3 2
v -3 -3 2
v -2 -3 2
v 1 -3 2
v 2 -3 2
v 3 -3 2
v -5 -2 2
v -4 -2 2
v -3 -2 2
v 2 -2 2
v 3 -2 2
v 4 -2 2
v -5 -1 2
v -4 -1 2
v -3 -1 2
v 2 -1 2
v 3 -1 2
v 4 -1 2
v -4 0 2
v -3 0 2
v -2 0 2
v 1 0 2
v 2 0 2
v 3 0 2
v -2 1 2
v 1 1 2
v -2 -5 3
v 1 -5 3
v -3 -4 3
v -2 -4 3
v 1 -4 3
v 2 -4 3
v -5 -3 3
v -4 -3 3
v -3 -3 3
v -2 -3 3
v 1 -3 3
v 2 -3 3
v 3 -3 3
v 4 -3 3
v -6 -2 3
v -5 -2 3
v -4 -2 3
v 3 -2 3
v 4 -2 3
v 5 -2 3
v -6 -1 3
v -5 -1 3
v -4 -1 3
v 3 -1 3
v 4 -1 3
v 5 -1 3
v -5 0 3
v -4 0 3
v -3 0 3
v -2 0 3
v 1 0 3
v 2 0 3
v 3 0 3
v 4 0 3
v -3 1 3
v -2 1 3
v 1 1 3
v 2 1 3
v -2 2 3
v 1 2 3
v -3 -5 4
v -2 -5 4
v 1 -5 4
v 2 -5 4
v -4 -4 4
v -3 -4 4
v -2 -4 4
v 1 -4 4
v 2 -4 4
v 3 -4 4
v -4 -3 4
v -3 -3 4
v 2 -3 4
v 3 -3 4
v -4 0 4
v -3 0 4
v 2 0 4
v 3 0 4
v -4 1 4
v -3 1 4
v -2 1 4
v 1 1 4
v 2 1 4
v 3 1 4
v -3 2 4
v -2 2 4
v 1 2 4
v 2 2 4
v -2 3 4
v 1 3 4
v -1 3 5
v 0 3 5
v -1 4 5
v 0 4 5
v -1 3 6
v 0 3 6
v -1 4 6
v 0 4 6
v -3 -5 7
v -2 -5 7
v 1 -5 7
v 2 -5 7
v -4 -4 7
v -3 -4 7
v -2 -4 7
v 1 -4 7
v 2 -4 7
v 3 -4 7
v -4 -3 7
v -3 -3 7
v 2 -3 7
v 3 -3 7
v -4 0 7
v -3 0 7
v 2 0 7
v 3 0 7
v -4 1 7
v -3 1 7
v -2 1 7
v 1 1 7
v 2 1 7
v 3 1 7
v -3 2 7
v -2 2 7
v 1 2 7
v 2 2 7
v -2 3 7
v 1 3 7
v -2 -5 8
v 1 -5 8
v -3 -4 8
v -2 -4 8
v 1 -4 8
v 2 -4 8
v -5 -3 8
v -4 -3 8
v -3 -3 8
v -2 -3 8
v 1 -3 8
v 2 -3 8
v 3 -3 8
v 4 -3 8
v -6 -2 8
v -5 -2 8
v -4 -2 8
v 3 -2 8
v 4 -2 8
v 5 -2 8
v -6 -1 8
v -5 -1 8
v -4 -1 8
v 3 -1 8
v 4 -1 8
v 5 -1 8
v -5 0 8
v -4 0 8
v -3 0 8
v -2 0 8
v 1 0 8
v 2 0 8
v 3 0 8
v 4 0 8
v -3 1 8
v -2 1 8
v 1 1 8
v 2 1 8
v -2 2 8
v 1 2 8
v -2 -4 9
v 1 -4 9
v -4 -3 9
v -3 -3 9
v -2 -3 9
v 1 -3 9
v 2 -3 9
v 3 -3 9
v -5 -2 9
v -4 -2 9
v -3 -2 9
v 2 -2 9
v 3 -2 9
v 4 -2 9
v -5 -1 9
v -4 -1 9
v -3 -1 9
v 2 -1 9
v 3 -1 9
v 4 -1 9
v -4 0 9
v -3 0 9
v -2 0 9
v 1 0 9
v 2 0 9
v 3 0 9
v -2 1 9
v 1 1 9
v -3 -3 10
v 2 -3 10
v -4 -2 10
v -3 -2 10
v 2 -2 10
v 3 -2 10
v -4 -1 10
v -3 -1 10
v -2 -1 10
v 1 -1 10
v 2 -1 10
v 3 -1 10
v -3 0 10
v -2 0 10
v 1 0 10
v 2 0 10
v -3 -2 11
v 2 -2 11
v -3 -1 11
v 2 -1 11

# faces
f 3/2/1 2/2/1 1/2/1
f 4/2/1 2/2/1 3/2/1
f 8/2/1 6/2/1 5/2/1
f 9/2/1 6/2/1 8/2/1
f 11/2/1 10/2/1 9/2/1
f 12/2/1 10/2/1 11/2/1
f 13/1/1 12/1/1 11/1/1
f 14/1/1 12/1/1 13/1/1
f 15/2/1 8/2/1 7/2/1
f 16/2/1 8/2/1 15/2/1
f 17/2/1 14/2/1 13/2/1
f 18/2/1 14/2/1 17/2/1
f 19/2/1 17/2/1 16/2/1
f 20/2/1 17/2/1 19/2/1
f 24/2/1 22/2/1 21/2/1
f 25/2/1 22/2/1 24/2/1
f 27/2/1 24/2/1 23/2/1
f 28/2/1 24/2/1 27/2/1
f 29/1/1 26/1/1 25/1/1
f 30/1/1 26/1/1 29/1/1
f 35/2/1 32/2/1 31/2/1
f 36/2/1 32/2/1 35/2/1
f 37/2/1 34/2/1 33/2/1
f 38/2/1 34/2/1 37/2/1
f 43/2/1 40/2/1 39/2/1
f 44/2/1 40/2/1 43/2/1
f 45/1/1 42/1/1 41/1/1
f 46/1/1 42/1/1 45/1/1
f 47/2/1 45/2/1 44/2/1
f 48/2/1 45/2/1 47/2/1
f 52/2/1 50/2/1 49/2/1
f 53/2/1 50/2/1 52/2/1
f 55/2/1 52/2/1 51/2/1
f 56/2/1 52/2/1 55/2/1
f 57/2/1 54/2/1 53/2/1
f 58/2/1 54/2/1 57/2/1
f 64/2/1 60/2/1 59/2/1
f 65/2/1 60/2/1 64/2/1
f 66/2/1 62/2/1 61/2/1
f 67/2/1 62/2/1 66/2/1
f 69/2/1 64/2/1 63/2/1
f 70/2/1 64/2/1 69/2/1
f 73/2/1 68/2/1 67/2/1
f 74/2/1 68/2/1 73/2/1
f 75/2/1 71/2/1 70/2/1
f 76/2/1 71/2/1 75/2/1
f 77/2/1 73/2/1 72/2/1
f 78/2/1 73/2/1 77/2/1
f 83/2/1 80/2/1 79/2/1
f 84/2/1 80/2/1 83/2/1
f 85/2/1 82/2/1 81/2/1
f 86/2/1 82/2/1 85/2/1
f 87/2/1 85/2/1 84/2/1
f 88/2/1 85/2/1 87/2/1
f 94/2/1 90/2/1 89/2/1
f 95/2/1 90/2/1 94/2/1
f 96/2/1 92/2/1 91/2/1
f 97/2/1 92/2/1 96/2/1
f 99/2/1 94/2/1 93/2/1
f 100/2/1 94/2/1 99/2/1
f 101/2/1 98/2/1 97/2/1
f 102/2/1 98/2/1 101/2/1
f 107/2/1 103/2/1 102/2/1
f 108/2/1 103/2/1 107/2/1
f 109/2/1 105/2/1 104/2/1
f 110/2/1 105/2/1 109/2/1
f 113/2/1 107/2/1 106/2/1
f 114/2/1 107/2/1 113/2/1
f 115/2/1 111/2/1 110/2/1
f 116/2/1 111/2/1 115/2/1
f 117/2/1 113/2/1 112/2/1
f 118/2/1 113/2/1 117/2/1
f 121/2/1 120/2/1 119/2/1
f 122/2/1 120/2/1 121/2/1
f 123/2/2 124/2/2 125/2/2
f 125/2/2 124/2/2 126/2/2
f 127/2/2 128/2/2 132/2/2
f 132/2/2 128/2/2 133/2/2
f 129/2/2 130/2/2 134/2/2
f 134/2/2 130/2/2 135/2/2
f 131/2/2 132/2/2 137/2/2
f 137/2/2 132/2/2 138/2/2
f 135/2/2 136/2/2 139/2/2
f 139/2/2 136/2/2 140/2/2
f 140/2/2 141/2/2 145/2/2
f 145/2/2 141/2/2 146/2/2
f 142/2/2 143/2/2 147/2/2
f 147/2/2 143/2/2 148/2/2
f 144/2/2 145/2/2 151/2/2
f 151/2/2 145/2/2 152/2/2
f 148/2/2 149/2/2 153/2/2
f 153/2/2 149/2/2 154/2/2
f 150/2/2 151/2/2 155/2/2
f 155/2/2 151/2/2 156/2/2
f 157/2/2 158/2/2 160/2/2
f 160/2/2 158/2/2 161/2/2
f 159/2/2 160/2/2 163/2/2
f 163/2/2 160/2/2 164/2/2
f 161/2/2 162/2/2 165/2/2
f 165/2/2 162/2/2 166/2/2
f 167/2/2 168/2/2 172/2/2
f 172/2/2 168/2/2 173/2/2
f 169/2/2 170/2/2 174/2/2
f 174/2/2 170/2/2 175/2/2
f 171/2/2 172/2/2 177/2/2
f 177/2/2 172/2/2 178/2/2
f 175/2/2 176/2/2 181/2/2
f 181/2/2 176/2/2 182/2/2
f 178/2/2 179/2/2 183/2/2
f 183/2/2 179/2/2 184/2/2
f 180/2/2 181/2/2 185/2/2
f 185/2/2 181/2/2 186/2/2
f 187/2/2 188/2/2 191/2/2
f 191/2/2 188/2/2 192/2/2
f 189/2/2 190/2/2 193/2/2
f 193/2/2 190/2/2 194/2/2
f 192/2/2 193/2/2 195/2/2
f 195/2/2 193/2/2 196/2/2
f 197/2/2 198/2/2 200/2/2
f 200/2/2 198/2/2 201/2/2
f 199/2/2 200/2/2 203/2/2
f 203/2/2 200/2/2 204/2/2
f 201/1/2 202/1/2 205/1/2
f 205/1/2 202/1/2 206/1/2
f 207/2/2 208/2/2 211/2/2
f 211/2/2 208/2/2 212/2/2
f 209/2/2 210/2/2 213/2/2
f 213/2/2 210/2/2 214/2/2
f 215/2/2 216/2/2 219/2/2
f 219/2/2 216/2/2 220/2/2
f 217/1/2 218/1/2 221/1/2
f 221/1/2 218/1/2 222/1/2
f 220/2/2 221/2/2 223/2/2
f 223/2/2 221/2/2 224/2/2
f 225/2/2 226/2/2 228/2/2
f 228/2/2 226/2/2 229/2/2
f 229/2/2 230/2/2 231/2/2
f 231/2/2 230/2/2 232/2/2
f 231/1/2 232/1/2 233/1/2
f 233/1/2 232/1/2 234/1/2
f 227/2/2 228/2/2 235/2/2
f 235/2/2 228/2/2 236/2/2
f 233/2/2 234/2/2 237/2/2
f 237/2/2 234/2/2 238/2/2
f 236/2/2 237/2/2 239/2/2
f 239/2/2 237/2/2 240/2/2
f 241/2/2 242/2/2 243/2/2
f 243/2/2 242/2/2 244/2/2
f 248/2/3 246/2/3 245/2/3
f 249/2/3 246/2/3 248/2/3
f 251/2/3 248/2/3 247/2/3
f 251/2/3 250/2/3 249/2/3
f 251/2/3 249/2/3 248/2/3
f 252/2/3 250/2/3 251/2/3
f 253/2/3 250/2/3 252/2/3
f 254/2/3 250/2/3 253/2/3
f 255/2/3 253/2/3 252/2/3
f 256/2/3 253/2/3 255/2/3
f 260/2/3 258/2/3 257/2/3
f 261/2/3 258/2/3 260/2/3
f 264/2/3 260/2/3 259/2/3
f 265/2/3 260/2/3 264/2/3
f 266/2/3 262/2/3 261/2/3
f 267/2/3 262/2/3 266/2/3
f 269/2/3 264/2/3 263/2/3
f 270/2/3 264/2/3 269/2/3
f 273/2/3 268/2/3 267/2/3
f 274/2/3 268/2/3 273/2/3
f 275/2/3 271/2/3 270/2/3
f 276/2/3 271/2/3 275/2/3
f 277/2/3 273/2/3 272/2/3
f 278/2/3 273/2/3 277/2/3
f 279/2/3 277/2/3 276/2/3
f 280/2/3 277/2/3 279/2/3
f 284/2/3 282/2/3 281/2/3
f 285/2/3 282/2/3 284/2/3
f 286/2/3 282/2/3 285/2/3
f 287/2/3 282/2/3 286/2/3
f 290/2/3 284/2/3 283/2/3
f 290/2/3 285/2/3 284/2/3
f 291/2/3 285/2/3 290/2/3
f 292/2/3 285/2/3 291/2/3
f 293/2/3 287/2/3 286/2/3
f 293/2/3 288/2/3 287/2/3
f 294/2/3 288/2/3 293/2/3
f 295/2/3 288/2/3 294/2/3
f 297/2/3 291/2/3 290/2/3
f 297/2/3 290/2/3 289/2/3
f 298/2/3 291/2/3 297/2/3
f 299/2/3 296/2/3 295/2/3
f 299/2/3 295/2/3 294/2/3
f 300/2/3 296/2/3 299/2/3
f 301/2/3 297/2/3 289/2/3
f 304/2/3 296/2/3 300/2/3
f 305/2/3 302/2/3 301/2/3
f 305/2/3 301/2/3 289/2/3
f 306/2/3 302/2/3 305/2/3
f 307/2/3 302/2/3 306/2/3
f 310/2/3 304/2/3 303/2/3
f 311/2/3 296/2/3 304/2/3
f 311/2/3 304/2/3 310/2/3
f 312/2/3 296/2/3 311/2/3
f 313/2/3 308/2/3 307/2/3
f 313/2/3 307/2/3 306/2/3
f 314/2/3 308/2/3 313/2/3
f 315/2/3 308/2/3 314/2/3
f 316/2/3 310/2/3 309/2/3
f 316/2/3 311/2/3 310/2/3
f 317/2/3 311/2/3 316/2/3
f 318/2/3 311/2/3 317/2/3
f 319/2/3 315/2/3 314/2/3
f 319/2/3 317/2/3 316/2/3
f 319/2/3 316/2/3 315/2/3
f 320/2/3 317/2/3 319/2/3
f 324/2/3 322/2/3 321/2/3
f 325/2/3 322/2/3 324/2/3
f 328/2/3 324/2/3 323/2/3
f 329/2/3 324/2/3 328/2/3
f 330/2/3 326/2/3 325/2/3
f 331/2/3 326/2/3 330/2/3
f 334/2/3 328/2/3 327/2/3
f 335/2/3 328/2/3 334/2/3
f 336/2/3 332/2/3 331/2/3
f 337/2/3 332/2/3 336/2/3
f 339/2/3 334/2/3 333/2/3
f 340/2/3 334/2/3 339/2/3
f 343/2/3 338/2/3 337/2/3
f 344/2/3 338/2/3 343/2/3
f 345/2/3 341/2/3 340/2/3
f 346/2/3 341/2/3 345/2/3
f 349/2/3 343/2/3 342/2/3
f 350/2/3 343/2/3 349/2/3
f 351/2/3 347/2/3 346/2/3
f 352/2/3 347/2/3 351/2/3
f 353/2/3 349/2/3 348/2/3
f 354/2/3 349/2/3 353/2/3
f 355/2/3 353/2/3 352/2/3
f 356/2/3 353/2/3 355/2/3
f 357/2/4 358/2/4 360/2/4
f 360/2/4 358/2/4 361/2/4
f 361/2/4 358/2/4 362/2/4
f 362/2/4 358/2/4 363/2/4
f 359/2/4 360/2/4 366/2/4
f 366/2/4 360/2/4 367/2/4
f 363/2/4 364/2/4 368/2/4
f 368/2/4 364/2/4 369/2/4
f 365/2/4 366/2/4 372/2/4
f 372/2/4 366/2/4 373/2/4
f 369/2/4 370/2/4 374/2/4
f 374/2/4 370/2/4 375/2/4
f 371/2/4 372/2/4 377/2/4
f 375/2/4 376/2/4 378/2/4
f 371/2/4 377/2/4 379/2/4
f 378/2/4 376/2/4 380/2/4
f 371/2/4 379/2/4 381/2/4
f 381/2/4 379/2/4 382/2/4
f 380/2/4 376/2/4 385/2/4
f 385/2/4 376/2/4 386/2/4
f 382/2/4 383/2/4 387/2/4
f 387/2/4 383/2/4 388/2/4
f 384/2/4 385/2/4 391/2/4
f 391/2/4 385/2/4 392/2/4
f 388/2/4 389/2/4 393/2/4
f 393/2/4 389/2/4 394/2/4
f 390/2/4 391/2/4 397/2/4
f 397/2/4 391/2/4 398/2/4
f 395/2/4 396/2/4 399/2/4
f 396/2/4 397/2/4 399/2/4
f 394/2/4 395/2/4 399/2/4
f 399/2/4 397/2/4 400/2/4
f 401/2/4 402/2/4 406/2/4
f 402/1/4 403/1/4 407/1/4
f 406/2/4 402/2/4 407/2/4
f 403/2/4 404/2/4 408/2/4
f 407/1/4 403/1/4 408/1/4
f 408/2/4 404/2/4 409/2/4
f 405/1/4 406/1/4 412/1/4
f 406/2/4 407/2/4 413/2/4
f 412/1/4 406/1/4 413/1/4
f 413/2/4 407/2/4 414/2/4
f 408/2/4 409/2/4 415/2/4
f 409/1/4 410/1/4 416/1/4
f 415/2/4 409/2/4 416/2/4
f 416/1/4 410/1/4 417/1/4
f 411/2/4 412/2/4 419/2/4
f 412/2/4 413/2/4 419/2/4
f 419/2/4 413/2/4 420/2/4
f 420/2/4 413/2/4 421/2/4
f 417/2/4 418/2/4 422/2/4
f 416/2/4 417/2/4 422/2/4
f 422/2/4 418/2/4 423/2/4
f 423/2/4 418/2/4 424/2/4
f 419/1/4 420/1/4 425/1/4
f 425/1/4 420/1/4 426/1/4
f 423/1/4 424/1/4 429/1/4
f 429/1/4 424/1/4 430/1/4
f 426/2/4 427/2/4 431/2/4
f 425/2/4 426/2/4 431/2/4
f 431/2/4 427/2/4 432/2/4
f 432/2/4 427/2/4 433/2/4
f 429/2/4 430/2/4 436/2/4
f 428/2/4 429/2/4 436/2/4
f 436/2/4 430/2/4 437/2/4
f 437/2/4 430/2/4 438/2/4
f 432/1/4 433/1/4 439/1/4
f 433/2/4 434/2/4 440/2/4
f 439/1/4 433/1/4 440/1/4
f 440/2/4 434/2/4 441/2/4
f 435/2/4 436/2/4 442/2/4
f 436/1/4 437/1/4 443/1/4
f 442/2/4 436/2/4 443/2/4
f 443/1/4 437/1/4 444/1/4
f 440/2/4 441/2/4 445/2/4
f 441/1/4 442/1/4 446/1/4
f 445/2/4 441/2/4 446/2/4
f 442/2/4 443/2/4 447/2/4
f 446/1/4 442/1/4 447/1/4
f 447/2/4 443/2/4 448/2/4
f 449/2/4 450/2/4 452/2/4
f 452/2/4 450/2/4 453/2/4
f 451/2/4 452/2/4 456/2/4
f 456/2/4 452/2/4 457/2/4
f 453/2/4 454/2/4 458/2/4
f 458/2/4 454/2/4 459/2/4
f 455/2/4 456/2/4 461/2/4
f 461/2/4 456/2/4 462/2/4
f 459/2/4 460/2/4 465/2/4
f 465/2/4 460/2/4 466/2/4
f 462/2/4 463/2/4 467/2/4
f 467/2/4 463/2/4 468/2/4
f 464/2/4 465/2/4 469/2/4
f 469/2/4 465/2/4 470/2/4
f 468/2/4 469/2/4 471/2/4
f 471/2/4 469/2/4 472/2/4
f 473/2/4 474/2/4 476/2/4
f 476/2/4 474/2/4 477/2/4
f 475/2/4 476/2/4 479/2/4
f 479/2/4 476/2/4 480/2/4
f 477/2/4 478/2/4 481/2/4
f 481/2/4 478/2/4 482/2/4
f 480/2/4 481/2/4 483/2/4
f 483/2/4 481/2/4 484/2/4
f 485/2/4 486/2/4 487/2/4
f 487/2/4 486/2/4 488/2/4
f 485/2/4 487/2/4 489/2/4
f 488/2/4 486/2/4 490/2/4
f 485/2/4 489/2/4 491/2/4
f 489/2/4 490/2/4 491/2/4
f 490/2/4 486/2/4 492/2/4
f 491/2/4 490/2/4 492/2/4
f 493/2/4 494/2/4 495/2/4
f 495/2/4 494/2/4 496/2/4
f 499/2/5 498/2/5 497/2/5
f 500/2/5 498/2/5 499/2/5
f 504/2/5 502/2/5 501/2/5
f 505/2/5 502/2/5 504/2/5
f 507/2/5 504/2/5 503/2/5
f 508/2/5 504/2/5 507/2/5
f 511/2/5 506/2/5 505/2/5
f 512/2/5 506/2/5 511/2/5
f 513/2/5 509/2/5 508/2/5
f 514/1/5 510/1/5 509/1/5
f 514/2/5 509/2/5 513/2/5
f 515/2/5 511/2/5 510/2/5
f 515/1/5 510/1/5 514/1/5
f 516/2/5 511/2/5 515/2/5
f 521/2/5 518/2/5 517/2/5
f 522/2/5 518/2/5 521/2/5
f 526/2/5 520/2/5 519/2/5
f 527/2/5 520/2/5 526/2/5
f 528/2/5 524/2/5 523/2/5
f 529/2/5 524/2/5 528/2/5
f 531/2/5 526/2/5 525/2/5
f 532/2/5 526/2/5 531/2/5
f 535/2/5 530/2/5 529/2/5
f 536/2/5 530/2/5 535/2/5
f 537/1/5 533/1/5 532/1/5
f 538/1/5 533/1/5 537/1/5
f 541/1/5 535/1/5 534/1/5
f 542/1/5 535/1/5 541/1/5
f 543/2/5 540/2/5 539/2/5
f 544/2/5 540/2/5 543/2/5
f 548/2/5 546/2/5 545/2/5
f 549/2/5 546/2/5 548/2/5
f 553/2/5 548/2/5 547/2/5
f 554/2/5 548/2/5 553/2/5
f 555/2/5 550/2/5 549/2/5
f 556/2/5 550/2/5 555/2/5
f 560/2/5 552/2/5 551/2/5
f 561/2/5 552/2/5 560/2/5
f 562/2/5 558/2/5 557/2/5
f 563/2/5 558/2/5 562/2/5
f 565/2/5 560/2/5 559/2/5
f 566/2/5 560/2/5 565/2/5
f 569/2/5 564/2/5 563/2/5
f 570/2/5 564/2/5 569/2/5
f 571/2/5 567/2/5 566/2/5
f 572/2/5 567/2/5 571/2/5
f 577/2/5 569/2/5 568/2/5
f 578/2/5 569/2/5 577/2/5
f 579/2/5 574/2/5 573/2/5
f 580/2/5 574/2/5 579/2/5
f 581/2/5 576/2/5 575/2/5
f 582/2/5 576/2/5 581/2/5
f 583/2/5 581/2/5 580/2/5
f 584/2/5 581/2/5 583/2/5
f 590/2/5 586/2/5 585/2/5
f 591/2/5 586/2/5 590/2/5
f 592/2/5 588/2/5 587/2/5
f 593/2/5 588/2/5 592/2/5
f 595/2/5 590/2/5 589/2/5
f 596/2/5 590/2/5 595/2/5
f 597/2/5 594/2/5 593/2/5
f 598/2/5 594/2/5 597/2/5
f 603/2/5 600/2/5 599/2/5
f 604/2/5 600/2/5 603/2/5
f 607/2/5 602/2/5 601/2/5
f 608/2/5 602/2/5 607/2/5
f 609/2/5 605/2/5 604/2/5
f 610/2/5 605/2/5 609/2/5
f 611/2/5 607/2/5 606/2/5
f 612/2/5 607/2/5 611/2/5
f 613/2/5 611/2/5 610/2/5
f 614/2/5 611/2/5 613/2/5
f 617/2/5 616/2/5 615/2/5
f 618/2/5 616/2/5 617/2/5
f 619/2/6 620/2/6 621/2/6
f 621/2/6 620/2/6 622/2/6
f 623/2/6 624/2/6 628/2/6
f 628/2/6 624/2/6 629/2/6
f 625/2/6 626/2/6 630/2/6
f 630/2/6 626/2/6 631/2/6
f 627/2/6 628/2/6 633/2/6
f 633/2/6 628/2/6 634/2/6
f 631/2/6 632/2/6 635/2/6
f 635/2/6 632/2/6 636/2/6
f 637/2/6 638/2/6 641/2/6
f 641/2/6 638/2/6 642/2/6
f 639/2/6 640/2/6 645/2/6
f 645/2/6 640/2/6 646/2/6
f 642/2/6 643/2/6 647/2/6
f 647/2/6 643/2/6 648/2/6
f 644/2/6 645/2/6 649/2/6
f 649/2/6 645/2/6 650/2/6
f 648/2/6 649/2/6 651/2/6
f 651/2/6 649/2/6 652/2/6
f 653/2/6 654/2/6 656/2/6
f 656/2/6 654/2/6 657/2/6
f 655/2/6 656/2/6 661/2/6
f 661/2/6 656/2/6 662/2/6
f 657/2/6 658/2/6 663/2/6
f 663/2/6 658/2/6 664/2/6
f 659/2/6 660/2/6 668/2/6
f 668/2/6 660/2/6 669/2/6
f 665/2/6 666/2/6 670/2/6
f 670/2/6 666/2/6 671/2/6
f 667/2/6 668/2/6 673/2/6
f 673/2/6 668/2/6 674/2/6
f 671/2/6 672/2/6 677/2/6
f 677/2/6 672/2/6 678/2/6
f 674/2/6 675/2/6 679/2/6
f 679/2/6 675/2/6 680/2/6
f 676/2/6 677/2/6 685/2/6
f 685/2/6 677/2/6 686/2/6
f 681/2/6 682/2/6 687/2/6
f 687/2/6 682/2/6 688/2/6
f 683/2/6 684/2/6 689/2/6
f 689/2/6 684/2/6 690/2/6
f 688/2/6 689/2/6 691/2/6
f 691/2/6 689/2/6 692/2/6
f 693/2/6 694/2/6 697/2/6
f 697/2/6 694/2/6 698/2/6
f 695/2/6 696/2/6 702/2/6
f 702/2/6 696/2/6 703/2/6
f 699/2/6 700/2/6 704/2/6
f 704/2/6 700/2/6 705/2/6
f 701/2/6 702/2/6 707/2/6
f 707/2/6 702/2/6 708/2/6
f 705/2/6 706/2/6 711/2/6
f 711/2/6 706/2/6 712/2/6
f 708/1/6 709/1/6 713/1/6
f 713/1/6 709/1/6 714/1/6
f 710/1/6 711/1/6 717/1/6
f 717/1/6 711/1/6 718/1/6
f 715/2/6 716/2/6 719/2/6
f 719/2/6 716/2/6 720/2/6
f 721/2/6 722/2/6 724/2/6
f 724/2/6 722/2/6 725/2/6
f 723/2/6 724/2/6 727/2/6
f 727/2/6 724/2/6 728/2/6
f 725/2/6 726/2/6 731/2/6
f 731/2/6 726/2/6 732/2/6
f 728/2/6 729/2/6 733/2/6
f 729/1/6 730/1/6 734/1/6
f 733/2/6 729/2/6 734/2/6
f 730/2/6 731/2/6 735/2/6
f 734/1/6 730/1/6 735/1/6
f 735/2/6 731/2/6 736/2/6
f 737/2/6 738/2/6 739/2/6
f 739/2/6 738/2/6 740/2/6
